<svg width="312" height="223" viewBox="0 0 312 223" fill="none" xmlns="http://www.w3.org/2000/svg">
<path d="M77.071 26.5879C79.2769 31.5962 77.0052 37.4442 71.997 39.6507C66.9889 41.856 61.1408 39.585 58.9348 34.5768C56.729 29.5685 59.0007 23.7205 64.0088 21.5152C69.0171 19.3086 74.8651 21.5797 77.071 26.5879Z" fill="#F4DFF6"/>
<path d="M70.5136 37.8592L69.753 36.1322C68.7535 36.5509 67.5918 36.6957 66.805 36.5314L66.7108 35.2048C67.5071 35.3447 68.5394 35.2778 69.4973 34.8555C70.7114 34.3212 71.2234 33.2587 70.794 32.2838C70.3798 31.343 69.4567 31.0546 67.9653 31.0996C65.9197 31.1836 64.4957 30.872 63.8404 29.3835C63.2152 27.9644 63.7496 26.4431 65.21 25.4926L64.4492 23.7655L65.5095 23.2994L66.2401 24.9583C67.2813 24.5396 68.103 24.5043 68.727 24.5773L68.7966 25.8942C68.347 25.8467 67.4802 25.7798 66.3858 26.2617C65.0689 26.8411 64.9195 27.8464 65.2207 28.5304C65.6125 29.42 66.4411 29.5856 68.2 29.5466C70.2779 29.4882 71.5589 29.986 72.2291 31.5085C72.8242 32.8595 72.4411 34.539 70.8077 35.6052L71.591 37.3845L70.5136 37.8592Z" fill="white"/>
<path d="M39.3199 82.2663L30.9604 72.8778C30.9604 72.8778 34.0351 66.2886 43.0624 66.0537C48.6581 65.9089 53.6007 60.2678 53.6007 60.2678L62.0043 69.7062C62.0043 69.7062 56.5666 77.4419 50.1671 77.4991C43.3991 77.5611 39.3199 82.2663 39.3199 82.2663Z" fill="#F4DFF6"/>
<path d="M51.2646 69.3071C52.1412 71.7255 50.5647 74.515 47.7435 75.5373C44.9222 76.5597 41.9244 75.429 41.0479 73.0107C40.1712 70.5924 41.7477 67.8028 44.5688 66.7805C47.3903 65.7569 50.388 66.8888 51.2646 69.3071Z" fill="#B697F9"/>
<path d="M300.725 92.9535L296.684 81.0506C296.684 81.0506 289.435 80.4737 284.777 88.2106C281.89 93.0059 274.545 94.5224 274.545 94.5224L278.609 106.489C278.609 106.489 288.019 105.575 291.227 100.037C294.619 94.1804 300.725 92.9535 300.725 92.9535Z" fill="#F4DFF6"/>
<path d="M283.56 96.9492C285.231 98.905 288.434 98.9099 290.716 96.9601C292.998 95.0116 293.492 91.8448 291.821 89.8902C290.15 87.9343 286.947 87.9295 284.665 89.878C282.384 91.8277 281.889 94.9933 283.56 96.9492Z" fill="#B697F9"/>
<path d="M296.582 222.997H1.46729C0.656889 222.997 0 222.34 0 221.531V221.251C0 220.44 0.656889 219.783 1.46729 219.783H296.582C297.393 219.783 298.05 220.44 298.05 221.251V221.531C298.05 222.34 297.393 222.997 296.582 222.997Z" fill="#641873"/>
<path d="M186.228 101.58C187.794 106.894 184.753 112.47 179.44 114.036C174.126 115.599 168.549 112.56 166.985 107.247C165.42 101.933 168.459 96.3563 173.774 94.7912C179.088 93.2273 184.663 96.2663 186.228 101.58Z" fill="white"/>
<path d="M178.182 112.044L177.643 110.211C176.586 110.502 175.4 110.496 174.632 110.23L174.709 108.886C175.491 109.129 176.536 109.196 177.552 108.897C178.841 108.517 179.492 107.517 179.188 106.484C178.894 105.484 178.005 105.077 176.502 104.927C174.437 104.747 173.049 104.248 172.584 102.669C172.14 101.164 172.873 99.7057 174.463 98.9414L173.924 97.1085L175.048 96.7774L175.567 98.5373C176.666 98.2537 177.496 98.3243 178.113 98.4777L178.012 99.8092C177.566 99.7033 176.705 99.5232 175.544 99.8652C174.147 100.277 173.867 101.266 174.08 101.993C174.357 102.936 175.168 103.21 176.938 103.398C179.032 103.61 180.254 104.276 180.73 105.891C181.151 107.325 180.548 108.962 178.77 109.82L179.326 111.707L178.182 112.044Z" fill="#B697F9"/>
<path d="M163.738 125.301L151.63 133.885L113.552 160.878L109.609 163.673L112.61 167.943L129.261 191.636L158.377 170.954L173.201 160.424L173.375 160.301L174.877 141.151L163.738 125.301Z" fill="#96D9C9"/>
<path d="M172.626 147.954L165.087 137.227C162.488 139.054 158.899 138.428 157.072 135.828L121.772 160.966C123.6 163.565 122.974 167.155 120.374 168.983L127.912 179.709C130.512 177.883 134.101 178.509 135.928 181.107L171.227 155.97C169.4 153.37 170.026 149.781 172.626 147.954Z" fill="#4EAD60"/>
<path d="M155.903 152.241C152.87 147.925 146.912 146.884 142.596 149.917C138.281 152.95 137.241 158.908 140.274 163.223C143.307 167.539 149.265 168.58 153.58 165.547C157.896 162.514 158.936 156.556 155.903 152.241Z" fill="#96D9C9"/>
<path d="M174.877 141.151L164.097 151.459L173.201 160.424L173.354 160.575L173.376 160.301L174.877 141.151Z" fill="#96D9C9"/>
<path d="M169.397 163.097L167.395 158.7L169.748 157.024L173.201 160.424L169.397 163.097Z" fill="#32783F"/>
<path d="M167.395 158.7L164.097 151.459L169.748 157.024L167.395 158.7Z" fill="#3E8A4D"/>
<path d="M170.671 145.173L170.22 144.532L174.138 140.099L174.877 141.151L170.671 145.173Z" fill="#32783F"/>
<path d="M164.097 151.459L170.22 144.532L170.671 145.173L164.097 151.459Z" fill="#3E8A4D"/>
<path d="M164.097 151.459L170.671 145.173L174.877 141.151L164.097 151.459Z" fill="#32783F"/>
<path d="M156.134 172.547L154.839 167.64L157.082 166.043L158.377 170.954L156.134 172.547ZM148.706 141.786L149.564 135.349L151.63 133.885L150.773 140.315L148.706 141.786Z" fill="#32783F"/>
<path d="M154.839 167.64L154.754 167.319C154.58 166.659 154.097 166.113 153.37 165.691C153.441 165.643 153.511 165.596 153.581 165.547C154.335 165.016 154.99 164.396 155.54 163.71C156.248 164.132 156.719 164.671 156.891 165.321L157.082 166.044L154.839 167.64ZM149.707 148.319C149.17 148.227 148.626 148.181 148.081 148.181C148.005 148.181 147.93 148.182 147.854 148.183L148.706 141.786L150.773 140.315L149.707 148.319Z" fill="#3E8A4D"/>
<path d="M153.37 165.69C152.189 165.003 150.366 164.64 148.184 164.64C147.381 164.64 146.528 164.689 145.64 164.789L147.854 148.183C147.93 148.182 148.005 148.18 148.081 148.18C148.626 148.18 149.17 148.227 149.707 148.319L147.777 162.79C148.665 162.69 149.517 162.642 150.321 162.642C152.524 162.642 154.361 163.01 155.54 163.71C154.99 164.395 154.335 165.016 153.58 165.547C153.511 165.595 153.441 165.643 153.37 165.69Z" fill="#32783F"/>
<path d="M117.875 114.412L107.33 193.521L141.209 198.036L151.754 118.927L117.875 114.412Z" fill="#96D9C9"/>
<path d="M140.552 123.239L127.556 121.507C127.136 124.657 124.242 126.87 121.093 126.45L113.588 182.745C116.739 183.165 118.951 186.059 118.531 189.209L131.528 190.941C131.948 187.791 134.841 185.579 137.991 185.998L145.495 129.703C142.346 129.283 140.132 126.389 140.552 123.239Z" fill="#4EAD60"/>
<path d="M131.426 147.1C126.198 146.404 121.394 150.077 120.696 155.305C119.999 160.534 123.673 165.338 128.902 166.035C134.13 166.732 138.934 163.058 139.632 157.829C140.329 152.601 136.655 147.797 131.426 147.1Z" fill="#96D9C9"/>
<path d="M141.693 165.53L109.141 174.121L117.863 207.167L150.415 198.576L144.277 175.32C150.78 173.578 155.463 170.007 154.754 167.319C154.044 164.63 148.208 163.836 141.693 165.53Z" fill="#96D9C9"/>
<path d="M118.118 176.991L124.254 200.242L160.844 190.584L154.708 167.334L118.118 176.991Z" fill="#4EAD60"/>
<path d="M135.197 176.095C130.641 177.296 127.922 181.965 129.125 186.521C130.327 191.076 134.995 193.795 139.551 192.593C144.107 191.39 146.825 186.721 145.623 182.166C144.421 177.61 139.752 174.891 135.197 176.095Z" fill="#96D9C9"/>
<path d="M150.415 198.576L149.122 193.678L160.844 190.584L156.091 172.578L156.134 172.547L162.184 195.47L150.415 198.576Z" fill="#B6DDFF"/>
<path d="M156.091 172.578L154.823 167.769C154.821 167.731 154.818 167.695 154.815 167.658L154.839 167.64L156.134 172.547L156.091 172.578Z" fill="#64197E"/>
<path d="M154.815 167.658C154.804 167.544 154.783 167.431 154.754 167.319L154.839 167.64L154.815 167.658Z" fill="#B697F9"/>
<path d="M140.684 165.796L141.693 165.53L140.684 165.796Z" fill="#32783F"/>
<path d="M138.359 166.41L140.684 165.796L138.359 166.41Z" fill="#3E8A4D"/>
<path d="M147.08 199.456L145.788 194.558L149.122 193.678L150.415 198.576L147.08 199.456ZM139.651 171.307L138.359 166.41L140.684 165.796L141.693 165.53C144.009 164.927 146.239 164.64 148.184 164.64C151.71 164.64 154.296 165.586 154.754 167.319C154.783 167.431 154.804 167.544 154.815 167.658C154.818 167.695 154.821 167.732 154.823 167.769L154.707 167.334L139.651 171.307Z" fill="#32783F"/>
<path d="M145.788 194.558L144.378 189.215C145.755 187.233 146.287 184.683 145.623 182.166C144.959 179.65 143.237 177.694 141.062 176.65L139.651 171.307L154.707 167.334L154.823 167.769L156.091 172.578L160.844 190.584L149.122 193.678L145.788 194.558Z" fill="#3E8A4D"/>
<path d="M144.378 189.215L141.062 176.65C143.237 177.694 144.959 179.65 145.623 182.166C146.287 184.683 145.755 187.233 144.378 189.215Z" fill="#32783F"/>
<path d="M154.754 167.319C155.463 170.007 150.78 173.578 144.277 175.32L152.999 208.367L153 208.366C159.503 206.624 164.186 203.054 163.475 200.365L154.754 167.319Z" fill="#96D9C9"/>
<path d="M156.327 173.283C156.641 174.472 155.839 175.802 154.369 176.835C154.805 178.671 153.79 180.503 152.068 180.957L152.059 180.96L156.47 197.668L156.477 197.665C158.059 197.248 159.695 198.136 160.36 199.686C161.852 198.65 162.668 197.308 162.352 196.11L156.327 173.283Z" fill="#4EAD60"/>
<path d="M116.034 219.696L68.1434 219.726C60.59 219.731 54.4629 213.611 54.458 206.058L54.3838 88.8654C54.3792 81.3111 60.4986 75.1843 68.052 75.1795L115.941 75.149C123.496 75.1442 129.622 81.2636 129.627 88.8179L129.702 206.011C129.706 213.564 123.587 219.691 116.034 219.696Z" fill="#2C2858"/>
<path d="M116.527 217.353L67.6472 217.384C62.3356 217.388 58.027 213.084 58.0235 207.773L57.9477 88.0123C57.9444 82.701 62.2476 78.3925 67.5593 78.3889L116.439 78.3584C121.75 78.3548 126.059 82.6584 126.063 87.9697L126.138 207.729C126.142 213.041 121.838 217.35 116.527 217.353Z" fill="#641873"/>
<path d="M53.9409 113.498C52.7624 113.498 51.8069 112.542 51.8069 111.364V100.3C51.8069 99.1203 52.7624 98.1661 53.9409 98.1661C55.1194 98.1661 56.0748 99.1203 56.0748 100.3V111.364C56.0748 112.542 55.1194 113.498 53.9409 113.498Z" fill="#2C2858"/>
<path d="M130.037 113.498C128.858 113.498 127.903 112.542 127.903 111.364V100.3C127.903 99.1203 128.858 98.1661 130.037 98.1661C131.216 98.1661 132.171 99.1203 132.171 100.3V111.364C132.171 112.542 131.216 113.498 130.037 113.498Z" fill="#2C2858"/>
<path d="M245.634 219.696L197.744 219.726C190.19 219.731 184.063 213.611 184.058 206.058L183.984 88.8654C183.979 81.3111 190.099 75.1843 197.653 75.1795L245.542 75.149C253.095 75.1442 259.223 81.2636 259.228 88.8179L259.302 206.011C259.307 213.564 253.188 219.691 245.634 219.696Z" fill="#2C2858"/>
<path d="M246.128 217.353L197.248 217.384C191.936 217.388 187.628 213.084 187.624 207.773L187.549 88.0123C187.545 82.701 191.849 78.3925 197.16 78.3889L246.04 78.3584C251.351 78.3548 255.66 82.6584 255.663 87.9697L255.739 207.729C255.743 213.041 251.439 217.35 246.128 217.353Z" fill="#641873"/>
<path d="M183.541 113.498C182.363 113.498 181.408 112.542 181.408 111.364V100.3C181.408 99.1203 182.363 98.1661 183.541 98.1661C184.72 98.1661 185.676 99.1203 185.676 100.3V111.364C185.676 112.542 184.72 113.498 183.541 113.498Z" fill="#2C2858"/>
<path d="M259.638 113.498C258.459 113.498 257.504 112.542 257.504 111.364V100.3C257.504 99.1203 258.459 98.1661 259.638 98.1661C260.816 98.1661 261.772 99.1203 261.772 100.3V111.364C261.772 112.542 260.816 113.498 259.638 113.498Z" fill="#2C2858"/>
<path d="M183.541 129.864C182.363 129.864 181.408 128.908 181.408 127.73V116.666C181.408 115.488 182.363 114.532 183.541 114.532C184.72 114.532 185.676 115.488 185.676 116.666V127.73C185.676 128.908 184.72 129.864 183.541 129.864Z" fill="#2C2858"/>
<path d="M31.9334 212.248C30.3243 219.004 24.5728 215.288 25.7756 219.559C25.8642 219.874 26.1633 220.084 26.4902 220.097L29.8675 220.226C30.1934 220.238 30.5146 220.146 30.7837 219.961C32.5654 218.741 33.7743 217.023 37.6225 216.815C37.5931 215.172 37.6679 212.825 37.1251 211.987L31.9334 212.248Z" fill="#64197E"/>
<path d="M40.8334 164.832C40.8334 164.832 31.0113 179.813 29.6555 184.472C28.2996 189.132 31.1361 197.028 30.6228 212.941C33.6928 213.738 37.7859 213.053 37.7859 213.053C37.7859 213.053 40.2495 193.093 37.3518 188.38C41.6934 181.755 52.5991 167.291 52.5991 167.291L40.8334 164.832Z" fill="#201D40"/>
<path d="M46.2806 214.426C43.7814 217.827 37.5431 215.816 37.7933 220.382C47.2485 220.231 51.179 220.252 51.179 220.252C51.1564 219.203 50.9452 216.715 50.7177 215.741L46.2806 214.426Z" fill="#64197E"/>
<path d="M43.3508 161.804C43.3508 161.804 40.2188 186.244 40.9418 191.043C41.6648 195.842 43.9048 199.598 43.9834 215.518C47.0807 216.201 51.8142 216.815 51.8142 216.815C51.8142 216.815 53.81 197.612 49.7047 192.325C50.8683 184.489 56.4129 164.782 56.4129 164.782L43.3508 161.804Z" fill="#2C2858"/>
<path d="M27.3054 151.045L23.4871 146.764C23.404 146.671 23.2862 146.617 23.1619 146.615L20.0179 146.596C19.9283 146.595 19.651 147.092 19.7113 147.158L22.4045 149.552C22.4169 149.565 22.4328 149.575 22.4505 149.581L27.0694 151.295C27.1686 151.324 27.3747 151.122 27.3054 151.045Z" fill="#4E126C"/>
<path d="M27.014 151.331L23.3762 147.296C23.2931 147.203 23.1753 147.15 23.051 147.147L19.8098 147.089C19.7201 147.087 19.6719 147.193 19.7322 147.259L22.2935 150.084C22.306 150.097 22.3219 150.107 22.3396 150.113L26.9083 151.498C27.0073 151.529 27.0833 151.409 27.014 151.331Z" fill="#9D46B1"/>
<path d="M34.2012 155.014L31.5705 153.724C31.5705 153.724 28.9755 151.098 28.5902 150.511C28.013 150.219 26.9208 149.484 26.6753 149.456C26.4297 149.427 25.9267 149.503 25.9267 149.503L27.1448 150.888C27.1448 150.888 26.5661 151.004 25.8282 150.534C25.0902 150.066 23.7863 148.808 23.1477 149.052C22.9214 149.253 22.9214 149.253 22.9214 149.253C22.9214 149.253 22.5181 148.822 22.138 148.983C21.7578 149.142 22.5136 151.038 24.659 153.048C24.8011 153.584 25.508 154.524 25.508 154.524L29.8455 156.048L34.2012 155.014Z" fill="#A96149"/>
<path d="M22.7837 147.904C22.9376 148.059 23.1593 148.087 23.2784 147.968C23.3976 147.848 23.3692 147.627 23.2151 147.473C23.061 147.319 22.8395 147.291 22.7204 147.41C22.6012 147.528 22.6296 147.75 22.7837 147.904Z" fill="#4E126C"/>
<path d="M46.4515 135.669C45.6709 136.68 51.785 137.781 52.6045 135.679C53.4241 133.576 52.0167 127.792 52.0167 127.792L46.4422 128.976C46.4422 128.976 47.4674 134.352 46.4515 135.669Z" fill="#A96149"/>
<path d="M53.2358 123.072C53.7052 127.544 51.238 131.469 47.7252 131.838C44.2126 132.206 40.9844 128.879 40.5151 124.406C40.0457 119.935 42.5129 116.01 46.0256 115.641C49.5383 115.272 52.7665 118.6 53.2358 123.072Z" fill="#A96149"/>
<path d="M42.5902 125.723C42.466 126.07 42.0848 126.25 41.7387 126.125C41.3926 126.001 41.2129 125.62 41.3371 125.274C41.4613 124.927 41.8425 124.748 42.1886 124.872C42.5346 124.996 42.7145 125.377 42.5902 125.723Z" fill="black"/>
<path d="M46.956 124.77C46.8215 125.145 46.4088 125.34 46.0341 125.205C45.6596 125.071 45.4649 124.658 45.5994 124.283C45.7339 123.908 46.1466 123.714 46.5212 123.848C46.8958 123.983 47.0905 124.395 46.956 124.77Z" fill="black"/>
<path d="M43.8615 125.584C43.7206 126.633 43.5243 127.922 43.5243 127.922C43.5243 127.922 44.2132 128.649 45.3555 128.147C44.7842 128.166 44.162 128.057 44.068 127.327C43.9739 126.597 43.8615 125.584 43.8615 125.584Z" fill="#9D46B1"/>
<path d="M42.3949 124.203C42.3201 124.248 42.2244 124.254 42.1421 124.209C42.134 124.205 41.8566 124.063 41.5968 124.163C41.4136 124.232 41.2669 124.412 41.161 124.697C41.1119 124.83 40.9648 124.897 40.8327 124.848C40.7005 124.799 40.6331 124.652 40.6822 124.519C40.8428 124.087 41.0914 123.806 41.4216 123.683C41.9049 123.502 42.3664 123.75 42.3858 123.76C42.5096 123.828 42.555 123.983 42.4874 124.107C42.4649 124.148 42.4325 124.181 42.3949 124.203Z" fill="#020205"/>
<path d="M45.7163 123.475C45.8016 123.493 45.8939 123.467 45.9569 123.398C45.9631 123.391 46.1784 123.166 46.4565 123.174C46.6525 123.181 46.8502 123.302 47.044 123.536C47.1338 123.644 47.2948 123.66 47.4035 123.57C47.5122 123.48 47.5274 123.319 47.4376 123.211C47.1438 122.856 46.8163 122.672 46.4641 122.663C45.9483 122.652 45.5939 123.038 45.579 123.054C45.4844 123.159 45.4926 123.321 45.5972 123.415C45.6321 123.447 45.6733 123.467 45.7163 123.475Z" fill="#020205"/>
<path d="M51.9299 125.913C49.6159 123.975 50.2549 121.016 50.2549 121.016C49.1326 121.089 48.8181 121.569 48.8181 121.569C47.9159 120.532 48.1355 119.556 48.1355 119.556C45.7035 119.292 44.9914 121.012 43.1351 122.027C40.5928 123.417 36.9421 123.238 35.7333 120.003C35.5584 119.534 36.003 119.08 36.4765 119.241C36.9157 119.39 37.464 119.458 38.0743 119.275C38.0743 119.275 37.3315 118.786 37.0629 117.905C36.9147 117.419 37.4181 116.999 37.8797 117.212C38.5717 117.53 39.7405 117.692 41.5161 116.839C42.6978 116.27 45.0098 113.509 46.8896 113.42C48.4262 113.348 49.91 114.272 50.8815 115.906C50.8815 115.906 54.5475 115.315 55.9623 119.144C57.3523 122.904 52.1417 128.716 52.1417 128.716C52.1417 128.716 52.5416 126.508 51.9299 125.913Z" fill="#020205"/>
<path d="M44.1446 129.858C43.9997 129.764 44.0358 129.544 44.2034 129.502C44.6295 129.399 45.3288 129.212 45.9726 128.97C46.6163 128.729 47.2659 128.41 47.6555 128.208C47.8087 128.129 47.9807 128.272 47.9331 128.437C47.7869 128.947 47.4024 129.783 46.4158 130.152C45.429 130.522 44.5903 130.146 44.1446 129.858Z" fill="white"/>
<path d="M50.2823 123.278C49.5295 124.02 49.4119 125.122 50.0197 125.738C50.6275 126.355 51.7306 126.251 52.4833 125.509C53.2362 124.767 53.3537 123.665 52.7457 123.048C52.138 122.432 51.0351 122.536 50.2823 123.278Z" fill="#A96149"/>
<path d="M51.0137 125.421C50.9808 125.409 50.9503 125.39 50.9246 125.363C50.5564 124.977 50.4704 124.505 50.6943 124.1C50.9239 123.685 51.4131 123.45 51.8576 123.541C51.9827 123.566 52.0634 123.688 52.0377 123.814C52.0122 123.939 51.8901 124.019 51.765 123.994C51.5213 123.944 51.2289 124.089 51.0991 124.323C50.9744 124.549 51.0312 124.805 51.2592 125.044C51.3474 125.136 51.344 125.283 51.2515 125.371C51.186 125.433 51.0934 125.449 51.0137 125.421Z" fill="#9D46B1"/>
<path d="M39.6564 166.626C44.0171 167.516 51.8573 169.053 56.0037 167.436C57.5729 165.183 57.9705 152.444 57.9705 152.444C58.4244 139.331 56.8519 137.386 53.3056 132.993C51.8175 133.675 48.0926 134.258 46.4551 134.272C46.4551 134.272 42.7444 139.424 42.0204 143.165C41.2864 146.957 41.2033 153.702 41.1351 157.565C41.0593 161.855 40.2117 163.924 39.6564 166.626Z" fill="#96D9C9"/>
<path d="M53.8223 136.972C56.3731 141.938 55.7955 147.437 48.3788 158.263C43.1848 157.81 42.1662 153.481 42.1662 153.481C42.1662 153.481 43.5934 148.105 45.4471 141.344C47.3009 134.583 52.7061 134.8 53.8223 136.972Z" fill="#64197E"/>
<path d="M31.1473 152.444L42.2682 153.331C42.2682 153.331 47.0375 152.461 48.3788 158.263C45.9917 160.121 39.83 160.819 29.7233 157.066C30.7928 155.611 31.1473 152.444 31.1473 152.444Z" fill="#64197E"/>
<path d="M46.4885 133.904L46.3829 136.895L53.907 133.74L52.9959 131.32L46.4885 133.904Z" fill="white"/>
<path d="M102.645 61.4314C100.186 67.0469 93.6405 69.6052 88.025 67.1467C82.4097 64.6882 79.8507 58.1428 82.3096 52.5273C84.7684 46.9117 91.3137 44.3522 96.9291 46.8119C102.544 49.2704 105.103 55.8158 102.645 61.4314Z" fill="#F4DFF6"/>
<path d="M100.829 60.6366C98.6379 65.7799 92.0936 67.7005 87.4596 64.5921C84.5129 62.6728 82.9118 59.0958 83.464 55.5906C84.3257 49.6793 90.8063 46.2155 96.134 48.6278C100.668 50.5678 102.88 56.0385 100.829 60.6366Z" fill="#B697F9"/>
<path d="M91.853 64.6445L91.8477 62.7568C90.7637 62.741 89.6417 62.4088 88.9863 61.9426L89.4313 60.6903C90.1053 61.1369 91.0779 61.4887 92.1244 61.4862C93.4511 61.4826 94.3459 60.7134 94.343 59.6484C94.3401 58.62 93.6095 57.9871 92.2251 57.4309C90.317 56.6885 89.1374 55.8317 89.1327 54.2069C89.1284 52.6552 90.2276 51.4746 91.946 51.1898L91.9406 49.3021L93.0992 49.2997L93.1043 51.1119C94.2256 51.146 94.9926 51.443 95.5354 51.7594L95.0717 52.9935C94.6786 52.7708 93.9113 52.3619 92.7154 52.3655C91.2766 52.3692 90.7371 53.2296 90.7392 53.9781C90.742 54.9493 91.4347 55.4337 93.0623 56.1019C94.9892 56.8808 95.9635 57.8496 95.9683 59.5134C95.9724 60.9897 94.9486 62.3747 93.0248 62.6984L93.0302 64.6409L91.853 64.6445Z" fill="#F4DFF6"/>
<path d="M122.555 29.2314C120.096 34.8469 113.551 37.4052 107.936 34.9467C102.32 32.4882 99.7615 25.9429 102.22 20.3273C104.679 14.7117 111.224 12.1535 116.84 14.6119C122.455 17.0704 125.013 23.6158 122.555 29.2314Z" fill="#F4DFF6"/>
<path d="M120.739 28.4366C118.548 33.5799 112.004 35.5005 107.37 32.3921C104.424 30.4728 102.822 26.8958 103.375 23.3906C104.236 17.4793 110.717 14.0168 116.045 16.4278C120.578 18.369 122.791 23.8397 120.739 28.4366Z" fill="#B697F9"/>
<path d="M207.282 29.2314C204.823 34.8469 198.277 37.4052 192.663 34.9467C187.047 32.4882 184.488 25.9429 186.946 20.3273C189.406 14.7117 195.952 12.1535 201.566 14.6119C207.181 17.0704 209.741 23.6158 207.282 29.2314Z" fill="#F4DFF6"/>
<path d="M205.467 28.4366C203.275 33.5799 196.73 35.5005 192.097 32.3921C189.15 30.4728 187.549 26.8958 188.101 23.3906C188.963 17.4793 195.444 14.0168 200.771 16.4278C205.306 18.369 207.517 23.8397 205.467 28.4366Z" fill="#B697F9"/>
<path d="M229.902 61.4314C227.443 67.0469 220.898 69.6052 215.282 67.1467C209.667 64.6882 207.108 58.1428 209.567 52.5273C212.025 46.9117 218.571 44.3522 224.186 46.8119C229.802 49.2704 232.361 55.8158 229.902 61.4314Z" fill="#F4DFF6"/>
<path d="M228.086 60.6366C225.895 65.7799 219.351 67.7005 214.717 64.5921C211.77 62.6728 210.169 59.0958 210.722 55.5906C211.584 49.6793 218.063 46.2155 223.392 48.6278C227.926 50.5678 230.138 56.0385 228.086 60.6366Z" fill="#B697F9"/>
<path d="M219.11 64.6445L219.105 62.7568C218.021 62.741 216.899 62.4088 216.244 61.9426L216.689 60.6903C217.362 61.1369 218.336 61.4887 219.381 61.4862C220.708 61.4826 221.604 60.7134 221.6 59.6484C221.598 58.62 220.867 57.9871 219.482 57.4309C217.574 56.6885 216.395 55.8317 216.39 54.2069C216.386 52.6552 217.485 51.4746 219.204 51.1898L219.198 49.3021L220.356 49.2997L220.362 51.1119C221.483 51.146 222.25 51.443 222.793 51.7594L222.329 52.9935C221.936 52.7708 221.169 52.3619 219.973 52.3655C218.534 52.3692 217.995 53.2296 217.996 53.9781C218 54.9493 218.693 55.4337 220.32 56.1019C222.246 56.8808 223.221 57.8496 223.226 59.5134C223.23 60.9897 222.206 62.3747 220.282 62.6984L220.288 64.6409L219.11 64.6445Z" fill="#F4DFF6"/>
<path d="M168.197 15.554C165.739 21.1696 159.194 23.729 153.578 21.2693C147.962 18.8109 145.404 12.2655 147.863 6.64989C150.321 1.03555 156.867 -1.52395 162.482 0.934534C168.098 3.39423 170.656 9.93965 168.197 15.554Z" fill="#F4DFF6"/>
<path d="M166.382 14.7593C164.191 19.9038 157.647 21.8244 153.013 18.716C150.066 16.7954 148.465 13.2185 149.018 9.71331C149.879 3.802 156.359 0.339437 161.687 2.75167C166.221 4.69168 168.434 10.1624 166.382 14.7593Z" fill="#B697F9"/>
<path d="M157.406 18.7682L157.401 16.8805C156.316 16.8647 155.194 16.5324 154.54 16.0663L154.985 14.8127C155.658 15.2594 156.632 15.6123 157.677 15.6087C159.004 15.605 159.9 14.8371 159.896 13.7721C159.893 12.7437 159.163 12.1108 157.778 11.5534C155.87 10.8122 154.69 9.95539 154.686 8.32938C154.682 6.77883 155.781 5.59829 157.499 5.3135L157.493 3.42583L158.652 3.42338L158.658 5.2356C159.779 5.26968 160.546 5.56663 161.089 5.88307L160.625 7.11718C160.232 6.89446 159.465 6.48553 158.269 6.48797C156.83 6.49284 156.29 7.35331 156.292 8.10059C156.295 9.07303 156.988 9.5562 158.616 10.2244C160.542 11.0045 161.517 11.9733 161.522 13.6358C161.526 15.1121 160.502 16.4984 158.578 16.8209L158.584 18.7645L157.406 18.7682Z" fill="#F4DFF6"/>
<path d="M202.048 74.3349C201.511 74.3349 201.074 73.8992 201.074 73.3612C201.074 72.5689 201.055 71.7669 201.015 70.9782C200.987 70.4415 201.399 69.9838 201.937 69.9559C202.473 69.9303 202.931 70.3417 202.958 70.8784C203.001 71.6999 203.021 72.536 203.021 73.3612C203.021 73.8992 202.586 74.3349 202.048 74.3349Z" fill="#641873"/>
<path d="M147.667 27.8646C147.196 27.8646 146.782 27.5226 146.706 27.0419C146.624 26.5112 146.986 26.0122 147.518 25.9295C149.164 25.6715 150.846 25.4974 152.517 25.4122C153.055 25.3854 153.511 25.798 153.539 26.3347C153.567 26.8715 153.153 27.3291 152.617 27.3571C151.012 27.4386 149.399 27.6054 147.819 27.8537C147.768 27.861 147.718 27.8646 147.667 27.8646ZM162.391 27.8719C162.34 27.8719 162.289 27.867 162.238 27.8597C160.659 27.6102 159.045 27.4423 157.441 27.3583C156.904 27.3303 156.492 26.8727 156.52 26.336C156.548 25.7992 157.007 25.3867 157.542 25.4146C159.213 25.5011 160.895 25.6763 162.541 25.9356C163.072 26.0195 163.435 26.5185 163.351 27.0492C163.276 27.5287 162.862 27.8719 162.391 27.8719ZM138.164 30.4022C137.772 30.4022 137.403 30.1637 137.255 29.7766C137.062 29.2752 137.313 28.7117 137.815 28.5194C139.375 27.9206 140.985 27.3985 142.599 26.9676C143.12 26.8289 143.653 27.138 143.79 27.6577C143.929 28.1774 143.621 28.7105 143.102 28.8492C141.552 29.2618 140.009 29.7632 138.512 30.3377C138.398 30.3815 138.279 30.4022 138.164 30.4022ZM171.89 30.4156C171.773 30.4156 171.655 30.3949 171.541 30.3511C170.045 29.7754 168.502 29.274 166.955 28.8602C166.435 28.7202 166.127 28.1871 166.266 27.6674C166.406 27.1477 166.939 26.8398 167.459 26.9786C169.071 27.4106 170.68 27.9328 172.239 28.5328C172.742 28.7263 172.992 29.2898 172.799 29.7912C172.651 30.1783 172.281 30.4156 171.89 30.4156ZM129.4 34.8713C129.081 34.8713 128.769 34.7155 128.583 34.4283C128.29 33.9779 128.418 33.3755 128.868 33.0822C130.27 32.1706 131.734 31.3235 133.221 30.5653C133.7 30.3206 134.286 30.5105 134.531 30.99C134.776 31.4696 134.584 32.055 134.106 32.2996C132.68 33.0274 131.274 33.8404 129.929 34.7143C129.766 34.8214 129.582 34.8713 129.4 34.8713ZM180.644 34.8895C180.462 34.8895 180.278 34.8384 180.114 34.7313C178.771 33.8562 177.367 33.0432 175.942 32.3154C175.463 32.0708 175.274 31.4842 175.518 31.0047C175.763 30.5263 176.348 30.3365 176.828 30.5811C178.314 31.3406 179.777 32.1876 181.176 33.0992C181.628 33.3925 181.754 33.9962 181.461 34.4465C181.275 34.7337 180.962 34.8895 180.644 34.8895ZM121.755 41.065C121.506 41.065 121.256 40.97 121.066 40.7789C120.687 40.3992 120.687 39.7822 121.066 39.4024C122.248 38.2219 123.505 37.09 124.803 36.0385C125.22 35.7001 125.834 35.7646 126.172 36.1821C126.51 36.5995 126.446 37.2129 126.028 37.5513C124.783 38.5602 123.577 39.6458 122.444 40.7802C122.253 40.97 122.005 41.065 121.755 41.065ZM188.283 41.0856C188.033 41.0856 187.785 40.9907 187.594 40.7996C186.462 39.6665 185.256 38.5797 184.012 37.5707C183.595 37.2312 183.531 36.6178 183.87 36.2003C184.208 35.7829 184.821 35.7196 185.239 36.0579C186.535 37.1095 187.791 38.2426 188.972 39.4243C189.353 39.8041 189.351 40.4199 188.972 40.8008C188.781 40.9907 188.532 41.0856 188.283 41.0856ZM115.559 48.7033C115.377 48.7033 115.193 48.6522 115.029 48.5451C114.578 48.2517 114.45 47.6493 114.744 47.1978C115.654 45.7993 116.65 44.4326 117.702 43.1352C118.041 42.7177 118.654 42.6532 119.072 42.9928C119.489 43.3311 119.552 43.9445 119.214 44.362C118.204 45.607 117.25 46.919 116.376 48.2603C116.19 48.5475 115.877 48.7033 115.559 48.7033ZM194.476 48.7301C194.158 48.7301 193.846 48.5743 193.659 48.287C192.786 46.9446 191.832 45.6314 190.822 44.3851C190.483 43.9677 190.548 43.3543 190.966 43.0159C191.384 42.6776 191.997 42.7421 192.336 43.1595C193.387 44.4581 194.383 45.8261 195.292 47.2257C195.585 47.6761 195.457 48.2797 195.006 48.573C194.842 48.6789 194.658 48.7301 194.476 48.7301ZM111.086 57.4589C110.971 57.4589 110.853 57.4382 110.738 57.3944C110.236 57.2009 109.985 56.6386 110.178 56.1359C110.777 54.5793 111.466 53.0348 112.226 51.5476C112.47 51.068 113.057 50.8782 113.536 51.1228C114.015 51.3674 114.205 51.9541 113.96 52.4336C113.231 53.86 112.57 55.3412 111.996 56.8345C111.847 57.2215 111.478 57.4589 111.086 57.4589ZM198.944 57.4954C198.552 57.4954 198.184 57.2581 198.035 56.871C197.462 55.3752 196.801 53.8916 196.073 52.464C195.829 51.9845 196.018 51.3979 196.498 51.1545C196.978 50.9098 197.563 51.0997 197.808 51.5792C198.567 53.0677 199.256 54.6134 199.853 56.1736C200.046 56.6751 199.795 57.2386 199.294 57.4309C199.178 57.4747 199.06 57.4954 198.944 57.4954ZM108.545 66.9605C108.495 66.9605 108.444 66.9569 108.393 66.9484C107.861 66.8644 107.499 66.3666 107.582 65.8347C107.842 64.1844 108.193 62.5292 108.624 60.9178C108.763 60.3981 109.297 60.0902 109.817 60.2289C110.336 60.3677 110.645 60.9008 110.505 61.4204C110.092 62.9673 109.755 64.5544 109.506 66.1378C109.43 66.6173 109.016 66.9605 108.545 66.9605ZM201.478 67.0019C201.007 67.0019 200.593 66.6587 200.518 66.178C200.27 64.5946 199.935 63.0075 199.522 61.4594C199.384 60.9409 199.693 60.4066 200.213 60.2679C200.733 60.1291 201.267 60.4383 201.404 60.958C201.835 62.5718 202.183 64.227 202.442 65.8773C202.525 66.408 202.162 66.907 201.63 66.9898C201.579 66.9971 201.529 67.0019 201.478 67.0019Z" fill="#641873"/>
<path d="M107.969 74.3349C107.432 74.3349 106.996 73.8992 106.996 73.3612C106.996 72.536 107.017 71.7011 107.059 70.8784C107.086 70.3417 107.542 69.9279 108.081 69.9559C108.618 69.9838 109.031 70.4415 109.004 70.9782C108.963 71.7669 108.943 72.5689 108.943 73.3612C108.943 73.8992 108.507 74.3349 107.969 74.3349Z" fill="#641873"/>
<path d="M121.149 74.3349C120.611 74.3349 120.176 73.8992 120.176 73.3612C120.176 72.5287 120.205 71.6877 120.263 70.8601C120.302 70.3246 120.768 69.9206 121.304 69.9583C121.84 69.996 122.245 70.4622 122.206 70.9989C122.151 71.7802 122.123 72.575 122.123 73.3612C122.123 73.8992 121.687 74.3349 121.149 74.3349Z" fill="#641873"/>
<path d="M162.191 41.2389C162.123 41.2389 162.054 41.2316 161.984 41.2158C160.464 40.8884 158.902 40.6657 157.342 40.5562C156.806 40.5197 156.402 40.0535 156.439 39.5168C156.477 38.9813 156.941 38.5772 157.479 38.6137C159.13 38.7293 160.784 38.9655 162.396 39.3135C162.922 39.4267 163.256 39.9452 163.142 40.4698C163.043 40.9262 162.64 41.2389 162.191 41.2389ZM147.801 41.2438C147.353 41.2438 146.95 40.9322 146.85 40.4771C146.737 39.9513 147.07 39.4328 147.596 39.3184C149.208 38.9691 150.862 38.733 152.513 38.6162C153.049 38.5784 153.515 38.9825 153.554 39.518C153.591 40.0547 153.187 40.5209 152.651 40.5586C151.092 40.6694 149.529 40.8921 148.009 41.2219C147.939 41.2365 147.87 41.2438 147.801 41.2438ZM171.221 44.6017C171.062 44.6017 170.903 44.564 170.755 44.4824C169.384 43.7339 167.949 43.0779 166.488 42.5339C165.984 42.3465 165.728 41.7854 165.916 41.2815C166.103 40.7777 166.664 40.5209 167.168 40.7095C168.716 41.2864 170.236 41.9801 171.688 42.7737C172.16 43.0317 172.334 43.6232 172.076 44.0954C171.9 44.4192 171.565 44.6017 171.221 44.6017ZM138.781 44.6102C138.436 44.6102 138.103 44.4277 137.925 44.1039C137.667 43.6329 137.841 43.0414 138.312 42.7834C139.763 41.9887 141.282 41.2937 142.829 40.7168C143.332 40.5294 143.893 40.785 144.081 41.2888C144.269 41.7927 144.013 42.3538 143.509 42.5412C142.05 43.0865 140.616 43.7425 139.247 44.491C139.099 44.5725 138.939 44.6102 138.781 44.6102ZM178.934 50.3755C178.686 50.3755 178.437 50.2806 178.247 50.0919C177.142 48.988 175.949 47.9547 174.7 47.02C174.271 46.6975 174.183 46.0878 174.504 45.6569C174.827 45.2261 175.438 45.1396 175.867 45.461C177.189 46.4504 178.453 47.5446 179.622 48.713C180.003 49.0939 180.003 49.7098 179.623 50.0907C179.433 50.2806 179.184 50.3755 178.934 50.3755ZM131.072 50.3864C130.823 50.3864 130.574 50.2915 130.383 50.1017C130.003 49.7207 130.003 49.1049 130.384 48.7239C131.553 47.5555 132.816 46.4614 134.137 45.4707C134.567 45.1482 135.177 45.2358 135.5 45.6666C135.822 46.0963 135.735 46.7072 135.305 47.0298C134.057 47.9645 132.865 48.9978 131.761 50.1017C131.57 50.2915 131.322 50.3864 131.072 50.3864ZM184.718 58.0783C184.375 58.0783 184.041 57.8945 183.864 57.572C183.115 56.2065 182.26 54.8811 181.322 53.6324C181 53.2027 181.086 52.5918 181.516 52.2692C181.946 51.9467 182.556 52.0331 182.879 52.4628C183.872 53.7845 184.778 55.189 185.571 56.6361C185.829 57.1071 185.658 57.6986 185.185 57.9578C185.037 58.0394 184.876 58.0783 184.718 58.0783ZM125.29 58.0941C125.131 58.0941 124.972 58.0552 124.824 57.9749C124.351 57.7156 124.179 57.1241 124.437 56.6531C125.23 55.2048 126.136 53.7991 127.129 52.4762C127.451 52.0465 128.061 51.9589 128.492 52.2814C128.921 52.6039 129.009 53.2149 128.685 53.6445C127.748 54.8945 126.894 56.2211 126.145 57.5878C125.968 57.9116 125.634 58.0941 125.29 58.0941ZM188.092 67.0956C187.644 67.0956 187.241 66.7852 187.141 66.3288C186.81 64.8051 186.365 63.2923 185.817 61.8318C185.628 61.3279 185.884 60.7668 186.388 60.5782C186.892 60.3895 187.453 60.6451 187.641 61.149C188.221 62.6971 188.693 64.3 189.045 65.915C189.159 66.4408 188.826 66.9593 188.3 67.0737C188.23 67.0883 188.161 67.0956 188.092 67.0956ZM121.92 67.1224C121.851 67.1224 121.782 67.1151 121.713 67.0992C121.187 66.9861 120.853 66.4676 120.968 65.9418C121.318 64.3255 121.789 62.7202 122.368 61.1721C122.556 60.6682 123.117 60.4127 123.621 60.6001C124.125 60.7887 124.381 61.3498 124.192 61.8537C123.647 63.3154 123.201 64.8294 122.87 66.3544C122.772 66.8108 122.369 67.1224 121.92 67.1224Z" fill="#641873"/>
<path d="M188.868 74.3349C188.331 74.3349 187.895 73.8992 187.895 73.3612C187.895 72.575 187.867 71.779 187.812 70.9989C187.773 70.4622 188.177 69.996 188.714 69.9583C189.252 69.9193 189.715 70.3246 189.754 70.8601C189.813 71.6877 189.842 72.5287 189.842 73.3612C189.842 73.8992 189.406 74.3349 188.868 74.3349Z" fill="#641873"/>
<path d="M201.876 74.9042H201.864C201.677 74.9006 201.501 74.8105 201.388 74.6596L195.174 66.302C194.973 66.0318 195.029 65.6521 195.299 65.4513C195.568 65.2504 195.949 65.3064 196.15 65.5766L201.896 73.3038L207.618 66.201C207.829 65.9393 208.211 65.8979 208.473 66.1085C208.734 66.319 208.776 66.7012 208.565 66.9629L202.35 74.6779C202.234 74.8215 202.06 74.9042 201.876 74.9042Z" fill="#641873"/>
<path d="M121.13 74.9042H121.118C120.93 74.9006 120.754 74.8105 120.642 74.6596L114.427 66.302C114.226 66.0318 114.282 65.6521 114.553 65.4513C114.822 65.2504 115.203 65.3064 115.403 65.5766L121.149 73.3038L126.871 66.201C127.081 65.9393 127.465 65.8979 127.726 66.1085C127.988 66.319 128.029 66.7012 127.818 66.9629L121.603 74.6779C121.488 74.8215 121.313 74.9042 121.13 74.9042Z" fill="#641873"/>
<path d="M244.689 206.035V208.501C244.689 209.464 243.908 210.245 242.945 210.245H212.851C211.887 210.245 211.105 209.464 211.105 208.501V206.035C211.105 205.605 211.26 205.214 211.518 204.909C211.838 204.531 212.316 204.291 212.851 204.291H242.945C243.478 204.291 243.956 204.531 244.278 204.909C244.535 205.214 244.689 205.605 244.689 206.035Z" fill="#B697F9"/>
<path d="M213.648 210.245H212.774V204.291H213.648V210.245Z" fill="#F4DFF6"/>
<path d="M217.314 210.245H216.44V204.291H217.314V210.245Z" fill="#F4DFF6"/>
<path d="M220.979 210.245H220.106V204.291H220.979V210.245Z" fill="#F4DFF6"/>
<path d="M224.645 210.245H223.771V204.291H224.645V210.245Z" fill="#F4DFF6"/>
<path d="M228.311 210.245H227.436V204.291H228.311V210.245Z" fill="#F4DFF6"/>
<path d="M231.977 210.245H231.102V204.291H231.977V210.245Z" fill="#F4DFF6"/>
<path d="M235.641 210.245H234.768V204.291H235.641V210.245Z" fill="#F4DFF6"/>
<path d="M239.307 210.245H238.433V204.291H239.307V210.245Z" fill="#F4DFF6"/>
<path d="M242.973 210.245H242.099V204.291H242.973V210.245Z" fill="#F4DFF6"/>
<path d="M244.278 204.909H211.518C211.838 204.531 212.316 204.291 212.851 204.291H242.945C243.478 204.291 243.957 204.531 244.278 204.909Z" fill="#F4DFF6"/>
<path d="M244.278 209.627H211.518C211.838 210.005 212.316 210.245 212.851 210.245H242.945C243.478 210.245 243.957 210.005 244.278 209.627Z" fill="#F4DFF6"/>
<path d="M246.795 200.08V202.546C246.795 203.51 246.013 204.291 245.049 204.291H214.955C213.992 204.291 213.211 203.51 213.211 202.546V200.08C213.211 199.65 213.365 199.258 213.622 198.954C213.944 198.576 214.421 198.336 214.955 198.336H245.049C245.584 198.336 246.062 198.576 246.382 198.954C246.64 199.258 246.795 199.65 246.795 200.08Z" fill="#B697F9"/>
<path d="M215.752 204.29H214.878V198.336H215.752V204.29Z" fill="#F4DFF6"/>
<path d="M219.418 204.29H218.544V198.336H219.418V204.29Z" fill="#F4DFF6"/>
<path d="M223.084 204.29H222.21V198.336H223.084V204.29Z" fill="#F4DFF6"/>
<path d="M226.749 204.29H225.876V198.336H226.749V204.29Z" fill="#F4DFF6"/>
<path d="M230.415 204.29H229.541V198.336H230.415V204.29Z" fill="#F4DFF6"/>
<path d="M234.081 204.29H233.207V198.336H234.081V204.29Z" fill="#F4DFF6"/>
<path d="M237.747 204.29H236.873V198.336H237.747V204.29Z" fill="#F4DFF6"/>
<path d="M241.413 204.29H240.539V198.336H241.413V204.29Z" fill="#F4DFF6"/>
<path d="M245.079 204.29H244.205V198.336H245.079V204.29Z" fill="#F4DFF6"/>
<path d="M246.382 198.954H213.622C213.943 198.576 214.421 198.336 214.955 198.336H245.049C245.584 198.336 246.062 198.576 246.382 198.954Z" fill="#F4DFF6"/>
<path d="M246.382 203.672H213.622C213.943 204.05 214.421 204.29 214.955 204.29H245.049C245.584 204.29 246.062 204.05 246.382 203.672Z" fill="#F4DFF6"/>
<path d="M245.163 194.136V196.602C245.163 197.565 244.381 198.346 243.417 198.346H213.323C212.36 198.346 211.579 197.565 211.579 196.602V194.136C211.579 193.706 211.733 193.314 211.99 193.01C212.311 192.631 212.788 192.392 213.323 192.392H243.417C243.952 192.392 244.43 192.631 244.75 193.01C245.008 193.314 245.163 193.706 245.163 194.136Z" fill="#B697F9"/>
<path d="M214.12 198.346H213.246V192.392H214.12V198.346Z" fill="#F4DFF6"/>
<path d="M217.786 198.346H216.912V192.392H217.786V198.346Z" fill="#F4DFF6"/>
<path d="M221.452 198.346H220.578V192.392H221.452V198.346Z" fill="#F4DFF6"/>
<path d="M225.117 198.346H224.244V192.392H225.117V198.346Z" fill="#F4DFF6"/>
<path d="M228.783 198.346H227.909V192.392H228.783V198.346Z" fill="#F4DFF6"/>
<path d="M232.449 198.346H231.575V192.392H232.449V198.346Z" fill="#F4DFF6"/>
<path d="M236.115 198.346H235.241V192.392H236.115V198.346Z" fill="#F4DFF6"/>
<path d="M239.781 198.346H238.907V192.392H239.781V198.346Z" fill="#F4DFF6"/>
<path d="M243.446 198.346H242.573V192.392H243.446V198.346Z" fill="#F4DFF6"/>
<path d="M244.75 193.01H211.99C212.311 192.631 212.788 192.392 213.323 192.392H243.417C243.952 192.392 244.43 192.631 244.75 193.01Z" fill="#F4DFF6"/>
<path d="M244.75 197.727H211.99C212.311 198.106 212.788 198.346 213.323 198.346H243.417C243.952 198.346 244.43 198.106 244.75 197.727Z" fill="#F4DFF6"/>
<path d="M245.834 188.3V190.766C245.834 191.729 245.053 192.51 244.089 192.51H213.995C213.032 192.51 212.251 191.729 212.251 190.766V188.3C212.251 187.87 212.405 187.477 212.662 187.173C212.982 186.796 213.46 186.555 213.995 186.555H244.089C244.623 186.555 245.102 186.796 245.422 187.173C245.679 187.477 245.834 187.87 245.834 188.3Z" fill="#B697F9"/>
<path d="M214.792 192.51H213.918V186.555H214.792V192.51Z" fill="#F4DFF6"/>
<path d="M218.458 192.51H217.584V186.555H218.458V192.51Z" fill="#F4DFF6"/>
<path d="M222.123 192.51H221.25V186.555H222.123V192.51Z" fill="#F4DFF6"/>
<path d="M225.789 192.51H224.915V186.555H225.789V192.51Z" fill="#F4DFF6"/>
<path d="M229.455 192.51H228.581V186.555H229.455V192.51Z" fill="#F4DFF6"/>
<path d="M233.121 192.51H232.247V186.555H233.121V192.51Z" fill="#F4DFF6"/>
<path d="M236.787 192.51H235.913V186.555H236.787V192.51Z" fill="#F4DFF6"/>
<path d="M240.452 192.51H239.579V186.555H240.452V192.51Z" fill="#F4DFF6"/>
<path d="M244.118 192.51H243.244V186.555H244.118V192.51Z" fill="#F4DFF6"/>
<path d="M245.422 187.173H212.662C212.982 186.796 213.46 186.555 213.995 186.555H244.089C244.623 186.555 245.102 186.796 245.422 187.173Z" fill="#F4DFF6"/>
<path d="M245.422 191.892H212.662C212.982 192.27 213.46 192.51 213.995 192.51H244.089C244.623 192.51 245.102 192.27 245.422 191.892Z" fill="#F4DFF6"/>
<path d="M242.082 182.256V184.721C242.082 185.684 241.301 186.466 240.338 186.466H210.244C209.28 186.466 208.498 185.684 208.498 184.721V182.256C208.498 181.826 208.653 181.433 208.911 181.129C209.231 180.75 209.709 180.511 210.244 180.511H240.338C240.871 180.511 241.35 180.75 241.671 181.129C241.928 181.433 242.082 181.826 242.082 182.256Z" fill="#B697F9"/>
<path d="M211.041 186.466H210.167V180.511H211.041V186.466Z" fill="#F4DFF6"/>
<path d="M214.707 186.466H213.833V180.511H214.707V186.466Z" fill="#F4DFF6"/>
<path d="M218.372 186.466H217.499V180.511H218.372V186.466Z" fill="#F4DFF6"/>
<path d="M222.038 186.466H221.163V180.511H222.038V186.466Z" fill="#F4DFF6"/>
<path d="M225.704 186.466H224.829V180.511H225.704V186.466Z" fill="#F4DFF6"/>
<path d="M229.37 186.466H228.495V180.511H229.37V186.466Z" fill="#F4DFF6"/>
<path d="M233.034 186.466H232.161V180.511H233.034V186.466Z" fill="#F4DFF6"/>
<path d="M236.7 186.466H235.826V180.511H236.7V186.466Z" fill="#F4DFF6"/>
<path d="M240.366 186.466H239.492V180.511H240.366V186.466Z" fill="#F4DFF6"/>
<path d="M241.671 181.129H208.911C209.231 180.75 209.709 180.511 210.244 180.511H240.338C240.871 180.511 241.349 180.75 241.671 181.129Z" fill="#F4DFF6"/>
<path d="M241.671 185.846H208.911C209.231 186.225 209.709 186.466 210.244 186.466H240.338C240.871 186.466 241.349 186.225 241.671 185.846Z" fill="#F4DFF6"/>
<path d="M245.773 176.37V178.836C245.773 179.799 244.992 180.58 244.029 180.58H213.935C212.971 180.58 212.19 179.799 212.19 178.836V176.37C212.19 175.941 212.345 175.549 212.602 175.244C212.922 174.866 213.401 174.626 213.935 174.626H244.029C244.564 174.626 245.042 174.866 245.362 175.244C245.619 175.549 245.773 175.941 245.773 176.37Z" fill="#B697F9"/>
<path d="M214.732 180.58H213.858V174.626H214.732V180.58Z" fill="#F4DFF6"/>
<path d="M218.398 180.58H217.524V174.626H218.398V180.58Z" fill="#F4DFF6"/>
<path d="M222.064 180.58H221.19V174.626H222.064V180.58Z" fill="#F4DFF6"/>
<path d="M225.73 180.58H224.856V174.626H225.73V180.58Z" fill="#F4DFF6"/>
<path d="M229.395 180.58H228.521V174.626H229.395V180.58Z" fill="#F4DFF6"/>
<path d="M233.061 180.58H232.187V174.626H233.061V180.58Z" fill="#F4DFF6"/>
<path d="M236.727 180.58H235.852V174.626H236.727V180.58Z" fill="#F4DFF6"/>
<path d="M240.393 180.58H239.518V174.626H240.393V180.58Z" fill="#F4DFF6"/>
<path d="M244.057 180.58H243.184V174.626H244.057V180.58Z" fill="#F4DFF6"/>
<path d="M245.362 175.244H212.602C212.922 174.866 213.401 174.626 213.935 174.626H244.029C244.564 174.626 245.042 174.866 245.362 175.244Z" fill="#F4DFF6"/>
<path d="M245.362 179.962H212.602C212.922 180.34 213.401 180.58 213.935 180.58H244.029C244.564 180.58 245.042 180.34 245.362 179.962Z" fill="#F4DFF6"/>
<path d="M244.465 170.397V172.863C244.465 173.827 243.684 174.608 242.72 174.608H212.625C211.663 174.608 210.881 173.827 210.881 172.863V170.397C210.881 169.969 211.036 169.575 211.293 169.271C211.613 168.893 212.091 168.653 212.625 168.653H242.72C243.254 168.653 243.732 168.893 244.053 169.271C244.309 169.575 244.465 169.969 244.465 170.397Z" fill="#B697F9"/>
<path d="M213.423 174.608H212.549V168.653H213.423V174.608Z" fill="#F4DFF6"/>
<path d="M217.088 174.608H216.215V168.653H217.088V174.608Z" fill="#F4DFF6"/>
<path d="M220.754 174.608H219.88V168.653H220.754V174.608Z" fill="#F4DFF6"/>
<path d="M224.42 174.608H223.546V168.653H224.42V174.608Z" fill="#F4DFF6"/>
<path d="M228.086 174.608H227.212V168.653H228.086V174.608Z" fill="#F4DFF6"/>
<path d="M231.752 174.608H230.878V168.653H231.752V174.608Z" fill="#F4DFF6"/>
<path d="M235.417 174.608H234.544V168.653H235.417V174.608Z" fill="#F4DFF6"/>
<path d="M239.083 174.608H238.209V168.653H239.083V174.608Z" fill="#F4DFF6"/>
<path d="M242.749 174.608H241.875V168.653H242.749V174.608Z" fill="#F4DFF6"/>
<path d="M244.053 169.271H211.293C211.613 168.893 212.091 168.653 212.625 168.653H242.72C243.254 168.653 243.733 168.893 244.053 169.271Z" fill="#F4DFF6"/>
<path d="M244.053 173.99H211.293C211.613 174.367 212.091 174.608 212.625 174.608H242.72C243.254 174.608 243.733 174.367 244.053 173.99Z" fill="#F4DFF6"/>
<path d="M246.263 164.476V166.942C246.263 167.904 245.482 168.686 244.519 168.686H214.424C213.46 168.686 212.679 167.904 212.679 166.942V164.476C212.679 164.046 212.834 163.654 213.092 163.35C213.412 162.972 213.89 162.732 214.424 162.732H244.519C245.053 162.732 245.53 162.972 245.851 163.35C246.108 163.654 246.263 164.046 246.263 164.476Z" fill="#B697F9"/>
<path d="M215.221 168.686H214.348V162.732H215.221V168.686Z" fill="#F4DFF6"/>
<path d="M218.887 168.686H218.013V162.732H218.887V168.686Z" fill="#F4DFF6"/>
<path d="M222.553 168.686H221.679V162.732H222.553V168.686Z" fill="#F4DFF6"/>
<path d="M226.219 168.686H225.345V162.732H226.219V168.686Z" fill="#F4DFF6"/>
<path d="M229.885 168.686H229.011V162.732H229.885V168.686Z" fill="#F4DFF6"/>
<path d="M233.55 168.686H232.677V162.732H233.55V168.686Z" fill="#F4DFF6"/>
<path d="M237.216 168.686H236.341V162.732H237.216V168.686Z" fill="#F4DFF6"/>
<path d="M240.881 168.686H240.007V162.732H240.881V168.686Z" fill="#F4DFF6"/>
<path d="M244.547 168.686H243.673V162.732H244.547V168.686Z" fill="#F4DFF6"/>
<path d="M245.851 163.35H213.092C213.412 162.971 213.89 162.732 214.424 162.732H244.519C245.053 162.732 245.53 162.971 245.851 163.35Z" fill="#F4DFF6"/>
<path d="M245.851 168.067H213.092C213.412 168.446 213.89 168.686 214.424 168.686H244.519C245.053 168.686 245.53 168.446 245.851 168.067Z" fill="#F4DFF6"/>
<path d="M228.851 198.08C225.804 207.519 215.68 212.7 206.242 209.652C196.802 206.603 191.621 196.481 194.67 187.042C197.718 177.602 207.841 172.421 217.279 175.47C226.719 178.518 231.9 188.641 228.851 198.08Z" fill="#F4DFF6"/>
<path d="M225.8 197.094C223.295 204.848 214.98 209.103 207.228 206.599C206.418 206.338 205.647 206.013 204.918 205.632C203.682 204.988 202.569 204.184 201.591 203.253C201.221 202.9 200.871 202.529 200.54 202.143C198.123 199.305 196.823 195.602 197.025 191.786C197.091 190.537 197.318 189.275 197.721 188.027C199.589 182.245 204.689 178.408 210.376 177.87C212.315 177.686 214.323 177.885 216.295 178.522C218.001 179.073 219.538 179.905 220.87 180.952C221.273 181.268 221.657 181.602 222.021 181.957C223.011 182.914 223.855 184.002 224.536 185.183C226.549 188.67 227.134 192.961 225.8 197.094Z" fill="#B697F9"/>
<path d="M220.87 180.953L200.54 202.143C198.123 199.305 196.823 195.602 197.025 191.786L210.376 177.87C212.315 177.686 214.323 177.886 216.295 178.522C218.001 179.073 219.538 179.905 220.87 180.953Z" fill="#9BC1F9"/>
<path d="M224.536 185.183L204.918 205.632C203.682 204.988 202.569 204.184 201.591 203.253L222.021 181.957C223.011 182.914 223.855 184.002 224.536 185.183Z" fill="#9BC1F9"/>
<path d="M212.751 178.538C211.008 178.355 210.689 178.527 209.906 180.073C210.101 178.352 209.93 178.033 208.372 177.23C210.115 177.412 210.433 177.24 211.216 175.695C211.032 177.438 211.205 177.755 212.751 178.538Z" fill="white"/>
<path d="M206.583 206.248C205.111 206.093 204.843 206.238 204.183 207.543C204.347 206.09 204.202 205.822 202.888 205.143C204.358 205.298 204.627 205.153 205.288 203.848C205.133 205.319 205.278 205.587 206.583 206.248Z" fill="white"/>
<path d="M223.403 94.4859C213.07 94.4859 204.663 102.892 204.663 113.224C204.663 123.557 213.07 131.963 223.403 131.963C233.734 131.963 242.141 123.557 242.141 113.224C242.141 102.892 233.734 94.4859 223.403 94.4859ZM223.403 132.937C212.533 132.937 203.69 124.094 203.69 113.224C203.69 102.355 212.533 93.5123 223.403 93.5123C234.271 93.5123 243.114 102.355 243.114 113.224C243.114 124.094 234.271 132.937 223.403 132.937Z" fill="#B697F9"/>
<path d="M223.403 124.412C221.957 124.412 220.786 123.24 220.786 121.796V85.6268C220.786 84.1821 221.957 83.0101 223.403 83.0101C224.847 83.0101 226.019 84.1821 226.019 85.6268V121.796C226.019 123.24 224.847 124.412 223.403 124.412Z" fill="#B697F9"/>
<path d="M223.403 94.4859C213.07 94.4859 204.663 102.892 204.663 113.224C204.663 123.557 213.07 131.963 223.403 131.963C233.734 131.963 242.141 123.557 242.141 113.224C242.141 102.892 233.734 94.4859 223.403 94.4859ZM223.403 132.937C212.533 132.937 203.69 124.094 203.69 113.224C203.69 102.355 212.533 93.5123 223.403 93.5123C234.271 93.5123 243.114 102.355 243.114 113.224C243.114 124.094 234.271 132.937 223.403 132.937Z" fill="#B697F9"/>
<path d="M223.403 124.412C221.957 124.412 220.786 123.24 220.786 121.796V85.6268C220.786 84.1821 221.957 83.0101 223.403 83.0101C224.847 83.0101 226.019 84.1821 226.019 85.6268V121.796C226.019 123.24 224.847 124.412 223.403 124.412Z" fill="#B697F9"/>
<path d="M223.581 126.561C223.549 126.561 223.515 126.559 223.48 126.558C222.68 126.528 221.937 126.131 221.466 125.483L210.6 111.561C209.749 110.393 210.006 108.756 211.175 107.905C212.343 107.055 213.98 107.313 214.831 108.481L223.746 119.723L232.1 108.32C233.038 107.223 234.69 107.092 235.789 108.031C236.888 108.97 237.017 110.622 236.078 111.721L225.571 125.643C225.072 126.226 224.346 126.561 223.581 126.561Z" fill="#B697F9"/>
<path d="M92.7715 92.4824C82.4392 92.4824 74.0333 100.888 74.0333 111.22C74.0333 121.552 82.4392 129.958 92.7715 129.958C103.104 129.958 111.51 121.552 111.51 111.22C111.51 100.888 103.104 92.4824 92.7715 92.4824ZM92.7715 130.932C81.9022 130.932 73.0596 122.089 73.0596 111.22C73.0596 100.351 81.9022 91.5088 92.7715 91.5088C103.641 91.5088 112.484 100.351 112.484 111.22C112.484 122.089 103.641 130.932 92.7715 130.932Z" fill="#B697F9"/>
<path d="M107.037 111.22C107.037 119.099 100.65 125.486 92.7715 125.486C84.8932 125.486 78.5064 119.099 78.5064 111.22C78.5064 103.342 84.8932 96.9552 92.7715 96.9552C100.65 96.9552 107.037 103.342 107.037 111.22Z" fill="#B697F9"/>
<path d="M103.576 117.207C101.481 121.019 97.4284 123.603 92.7719 123.603C88.1144 123.603 84.0616 121.019 81.9667 117.207C83.2912 114.851 85.3658 112.971 87.8671 111.891C86.7978 110.715 86.1462 109.153 86.1462 107.438C86.1462 103.779 89.112 100.812 92.7719 100.812C96.4308 100.812 99.3966 103.779 99.3966 107.438C99.3966 109.153 98.7451 110.715 97.6758 111.891C100.177 112.971 102.252 114.851 103.576 117.207Z" fill="#641873"/>
<path d="M243.965 145.02L235.694 140.571C235.461 141.006 235.228 141.439 234.994 141.872C234.657 142.502 236.244 144.012 238.54 145.247C240.837 146.483 242.973 146.974 243.311 146.345C243.343 146.288 243.965 145.02 243.965 145.02Z" fill="#F4DFF6"/>
<path d="M243.973 145.115C243.635 145.743 241.499 145.251 239.203 144.017C236.906 142.782 235.319 141.27 235.657 140.642C235.994 140.013 238.13 140.504 240.427 141.74C242.724 142.975 244.312 144.486 243.973 145.115Z" fill="#B697F9"/>
<path d="M207.213 161.735L198.843 163.094C198.914 163.533 198.986 163.972 199.056 164.411C199.16 165.047 201.128 165.257 203.452 164.88C205.777 164.501 207.577 163.68 207.474 163.043C207.465 162.985 207.213 161.735 207.213 161.735Z" fill="#F4DFF6"/>
<path d="M207.272 161.797C207.375 162.434 205.575 163.255 203.25 163.634C200.926 164.011 198.958 163.8 198.854 163.165C198.751 162.528 200.552 161.707 202.875 161.328C205.2 160.951 207.168 161.162 207.272 161.797Z" fill="#B697F9"/>
<path d="M217.214 147.05L209.606 143.304C209.41 143.703 209.214 144.101 209.017 144.5C208.732 145.078 210.214 146.39 212.326 147.431C214.439 148.471 216.383 148.846 216.667 148.268C216.693 148.215 217.214 147.05 217.214 147.05Z" fill="#F4DFF6"/>
<path d="M217.225 147.135C216.94 147.713 214.996 147.339 212.885 146.299C210.772 145.258 209.289 143.946 209.575 143.368C209.86 142.789 211.803 143.164 213.915 144.204C216.028 145.245 217.509 146.557 217.225 147.135Z" fill="#B697F9"/>
<path d="M205.874 132.917L197.113 134.34C197.187 134.799 197.261 135.259 197.336 135.718C197.445 136.383 199.504 136.604 201.937 136.208C204.37 135.814 206.255 134.953 206.147 134.286C206.137 134.226 205.874 132.917 205.874 132.917Z" fill="#F4DFF6"/>
<path d="M205.935 132.983C206.043 133.649 204.158 134.509 201.725 134.903C199.292 135.299 197.233 135.08 197.125 134.414C197.016 133.747 198.9 132.887 201.333 132.492C203.766 132.097 205.827 132.316 205.935 132.983Z" fill="#B697F9"/>
<path d="M118.877 162.345H65.7445C63.3839 162.345 61.47 160.431 61.47 158.07V146.832C61.47 144.472 63.3839 142.558 65.7445 142.558H118.877C121.238 142.558 123.151 144.472 123.151 146.832V158.07C123.151 160.431 121.238 162.345 118.877 162.345Z" fill="#B697F9"/>
<path d="M80.6305 149.668V155.235C80.6305 156.735 79.4146 157.951 77.914 157.951H67.3863C66.8338 157.951 66.3189 157.786 65.8893 157.501C65.1554 157.015 64.671 156.181 64.671 155.235V149.668C64.671 148.167 65.8869 146.951 67.3863 146.951H77.914C78.5261 146.951 79.0921 147.154 79.5461 147.498C80.2045 147.992 80.6305 148.78 80.6305 149.668Z" fill="#F4DFF6"/>
<path d="M102.089 154.716H84.6197C83.3692 154.716 82.3552 153.702 82.3552 152.451C82.3552 151.201 83.3692 150.187 84.6197 150.187H102.089C103.34 150.187 104.354 151.201 104.354 152.451C104.354 153.702 103.34 154.716 102.089 154.716Z" fill="#641873"/>
<path d="M117.687 154.716H108.933C107.682 154.716 106.668 153.702 106.668 152.451C106.668 151.201 107.682 150.187 108.933 150.187H117.687C118.937 150.187 119.95 151.201 119.95 152.451C119.95 153.702 118.937 154.716 117.687 154.716Z" fill="#4EAD60"/>
<path d="M79.5461 147.498L65.8893 157.501C65.1554 157.015 64.671 156.181 64.671 155.235V149.668C64.671 148.167 65.8869 146.951 67.3863 146.951H77.914C78.5261 146.951 79.0921 147.154 79.5461 147.498Z" fill="#B697F9"/>
<path d="M77.0982 154.821C77.0982 155.83 76.2804 156.648 75.2716 156.648C74.2627 156.648 73.445 155.83 73.445 154.821C73.445 153.812 74.2627 152.994 75.2716 152.994C76.2804 152.994 77.0982 153.812 77.0982 154.821Z" fill="#9D46B1"/>
<path d="M79.2673 154.821C79.2673 155.83 78.4495 156.648 77.4407 156.648C76.432 156.648 75.614 155.83 75.614 154.821C75.614 153.812 76.432 152.994 77.4407 152.994C78.4495 152.994 79.2673 153.812 79.2673 154.821Z" fill="#641873"/>
<path d="M272.733 129.892C273.794 126.568 273.534 123.343 271.202 121.171C268.837 118.971 265.047 119.661 265.047 119.661C265.047 119.661 262.395 117.933 259.071 120.196C255.747 122.46 257.123 125.486 255.54 127.338C254.603 128.436 251.303 127.915 251.16 132.189C251.12 133.422 252.342 134.552 253.52 134.918C255.589 135.562 257.882 135.142 258.399 136.237C260.18 140.001 267.02 140.116 268.48 137.877C268.933 137.182 274.177 139.997 274.863 134.689C275.209 132 271.783 132.862 272.733 129.892Z" fill="#020205"/>
<path d="M259.187 128.586C258.756 132.677 261.012 136.269 264.227 136.607C267.441 136.946 270.395 133.902 270.826 129.81C271.257 125.717 269 122.125 265.786 121.787C262.572 121.449 259.618 124.493 259.187 128.586Z" fill="#A96149"/>
<path d="M269.086 130.31C269.124 130.618 269.405 130.837 269.713 130.799C270.021 130.762 270.24 130.481 270.203 130.173C270.165 129.865 269.885 129.646 269.576 129.683C269.268 129.721 269.049 130.002 269.086 130.31Z" fill="black"/>
<path d="M264.562 129.865C264.603 130.198 264.906 130.436 265.239 130.394C265.573 130.354 265.81 130.05 265.77 129.716C265.729 129.383 265.426 129.145 265.091 129.187C264.757 129.228 264.521 129.531 264.562 129.865Z" fill="black"/>
<path d="M264.095 129.166C264.141 129.16 264.186 129.139 264.221 129.104C264.728 128.584 265.547 128.739 265.556 128.74C265.67 128.763 265.781 128.689 265.804 128.575C265.827 128.46 265.753 128.348 265.638 128.325C265.596 128.317 264.588 128.122 263.919 128.808C263.836 128.891 263.838 129.025 263.921 129.107C263.97 129.154 264.034 129.173 264.095 129.166Z" fill="#020205"/>
<path d="M270.514 129.95C270.537 129.948 270.559 129.941 270.581 129.93C270.686 129.879 270.729 129.753 270.678 129.648C270.283 128.831 269.444 128.816 269.409 128.816C269.292 128.814 269.197 128.908 269.196 129.025C269.195 129.142 269.288 129.237 269.405 129.238C269.432 129.239 270.02 129.259 270.297 129.833C270.339 129.916 270.426 129.961 270.514 129.95Z" fill="#020205"/>
<path d="M268.339 131.341C268.524 131.744 268.67 132.142 268.886 132.414C268.959 132.507 268.944 132.642 268.855 132.719C268.491 133.038 267.721 133.134 267.259 133.162C267.192 133.167 267.171 133.073 267.233 133.047C267.764 132.836 268.03 132.635 268.154 132.518C268.216 132.458 268.244 132.374 268.233 132.29C268.209 132.097 268.162 131.704 268.148 131.387C268.143 131.278 268.293 131.242 268.339 131.341Z" fill="#9D46B1"/>
<path d="M263.999 133.192C263.955 133.05 264.101 132.924 264.235 132.99C264.574 133.157 265.138 133.422 265.697 133.619C266.256 133.817 266.86 133.966 267.23 134.049C267.375 134.082 267.409 134.271 267.286 134.355C266.907 134.609 266.191 134.947 265.334 134.645C264.479 134.342 264.133 133.629 263.999 133.192Z" fill="white"/>
<path d="M259.232 128.225C262.935 129.002 269.158 127.148 270.218 125.443C270.319 122.98 267.07 120.574 264.648 120.876C262.226 121.177 258.722 124.9 259.232 128.225Z" fill="#020205"/>
<path d="M270.135 139.287C273.947 140.239 280.464 149.148 281.075 155.827C278.982 156.259 276.592 154.592 276.592 154.592L271.413 147.142L270.135 139.287Z" fill="#9D46B1"/>
<path d="M273.822 215.707L275.864 207.665L270.798 206.967C270.624 210.771 270.339 214.516 270.364 215.53L273.822 215.707Z" fill="#A96149"/>
<path d="M261.733 206.921H256.443C256.616 208.189 257.311 215.052 257.311 215.052C257.758 216.067 261.7 215.836 261.7 215.265C261.402 214.029 261.709 207.079 261.733 206.921Z" fill="#A96149"/>
<path d="M270.383 210.065L275.599 210.835L279.216 189.203C278.471 180.993 271.244 163.528 271.244 163.528L263.099 166.381L262.9 174.083L272.71 190.693C271.432 193.905 270.557 204.29 270.383 210.065Z" fill="#4E126C"/>
<path d="M266.351 164.107C266.276 163.6 266.251 163.441 265.828 163.188L258.006 160.968L256.143 162.807C254.379 169.21 255.472 178.117 256.863 185.185C254.827 191.302 255.623 203.914 256.444 209.841H262.007C262.329 205.879 262.228 198.529 262.253 194.979C262.973 192.126 263.668 189.084 264.289 185.883C265.084 181.794 266.077 177.832 266.351 174.122C266.599 170.605 266.673 166.832 266.351 164.107Z" fill="#9D46B1"/>
<path d="M256.482 138.313C254.643 139.519 246.892 149.603 251.164 157.91C251.361 158.019 254.782 152.222 254.782 152.222L258.82 144.228L256.482 138.313Z" fill="#A96149"/>
<path d="M260.375 133.066L265.231 135.824C265.231 135.824 265.662 137.79 265.877 138.428C266.321 139.745 264.62 140.319 263.183 139.5C261.745 138.681 260.814 137.585 260.814 137.585L260.375 133.066Z" fill="#A96149"/>
<path d="M272.454 164.806C272.454 164.806 270.45 167.179 270.111 167.357L268.316 165.397L268.304 165.43L267.878 166.551L267.38 167.862C266.964 167.862 254.449 165.058 254.449 165.058C254.474 163.929 255.534 160.276 257.252 156.385C256.836 153.089 257.235 149.664 257.105 147.764C258.116 142.67 257.394 140.713 256.483 138.312L259.658 137.374L265.373 139.39L265.798 138.012C265.798 138.012 269.382 138.871 270.136 139.287L271.489 144.938L271.196 156.943C271.196 156.943 271.646 161.776 272.454 164.806Z" fill="#96D9C9"/>
<path d="M260.762 136.739L258.522 137.689C258.758 140.379 264.776 141.986 264.776 141.986L265.373 139.391L260.762 136.739Z" fill="#64197E"/>
<path d="M265.373 139.391L267.145 141.359C267.145 141.359 268.678 139.774 268.123 138.796C267.568 137.816 265.538 137.155 265.538 137.155L265.373 139.391Z" fill="#64197E"/>
<path d="M272.589 215.577C273.12 214.186 274.252 214.031 274.252 214.031C276.453 216.968 281.86 215.166 281.681 219.138C273.459 219.087 270.042 219.138 270.042 219.138C270.053 218.225 270.216 216.06 270.406 215.213L270.834 215.288L272.589 215.577Z" fill="#2C2858"/>
<path d="M281.205 220.198H270.523C270.257 220.198 270.042 219.983 270.042 219.719V219.029H281.686V219.719C281.686 219.983 281.47 220.198 281.205 220.198Z" fill="#2C2858"/>
<path d="M268.304 165.43L267.878 166.551C267.492 163.972 266.052 153.175 266.865 150.195C267.626 147.394 266.674 144.443 265.752 141.589C265.527 140.89 265.293 140.17 265.093 139.47L265.373 139.39L265.653 139.31C265.85 139.999 266.082 140.716 266.306 141.41C267.254 144.345 268.232 147.381 267.425 150.348C266.725 152.921 267.799 161.784 268.304 165.43Z" fill="#64197E"/>
<path d="M262.642 219.176C262.642 219.176 261.982 216.714 261.924 216.397C261.857 216.038 261.664 215.187 261.625 214.752C261.615 214.645 260.481 213.951 259.615 213.952C258.443 213.955 257.376 214.634 257.354 214.761C257.215 215.583 257.212 216.549 256.988 217.35C256.821 217.945 256.368 219.332 256.368 219.332L262.642 219.176Z" fill="#2C2858"/>
<path d="M262.642 218.985C262.488 219.474 260.59 218.909 259.205 218.911C258.043 218.911 256.538 219.361 256.368 219.186C256.077 219.699 256.316 220.763 256.316 220.763C256.316 220.763 257.528 220.826 258.981 220.763C260.434 220.701 262.114 220.793 262.747 220.606C263.146 219.938 262.642 218.985 262.642 218.985Z" fill="#2C2858"/>
<path d="M265.071 149.614C265.071 149.614 255.055 159.655 251.164 157.91C249.881 156.175 252.605 152.695 255.157 151.529C257.698 150.368 261.964 148.537 261.964 148.537L265.071 149.614Z" fill="#A96149"/>
<path d="M266.968 146.204L271.13 142.992C271.22 142.923 271.336 142.895 271.448 142.914L274.282 143.428C274.364 143.441 274.529 143.937 274.464 143.985L271.634 145.687C271.62 145.696 271.605 145.703 271.588 145.705L267.138 146.468C267.044 146.479 266.892 146.261 266.968 146.204Z" fill="#F9CD2D"/>
<path d="M267.182 146.511L271.14 143.49C271.231 143.421 271.345 143.393 271.458 143.412L274.387 143.906C274.467 143.92 274.493 144.024 274.428 144.073L271.643 146.184C271.63 146.194 271.614 146.2 271.597 146.203L267.249 146.679C267.155 146.69 267.106 146.569 267.182 146.511Z" fill="#F9F93A"/>
<path d="M261.855 148.591L264.194 147.42C264.194 147.42 265.676 145.806 266.14 145.324C266.733 145.151 267.885 144.655 268.12 144.672C268.355 144.689 268.752 144.827 268.752 144.827L267.398 145.886C267.398 145.886 267.95 146.141 268.724 145.832C269.498 145.522 270.94 144.573 271.496 144.914C271.673 145.141 271.673 145.141 271.673 145.141C271.673 145.141 272.161 144.763 272.454 145.025C273.362 145.834 267.509 149.322 267.509 149.322L265.071 149.614L261.855 148.591Z" fill="#A96149"/>
<path d="M271.571 144.139C271.406 144.252 271.202 144.24 271.114 144.112C271.028 143.984 271.09 143.789 271.255 143.677C271.42 143.564 271.624 143.576 271.712 143.704C271.798 143.831 271.736 144.025 271.571 144.139Z" fill="#F9CD2D"/>
<path d="M281.075 155.827C281.075 155.827 275.883 161.764 272.268 162.603C272.054 161.414 271.855 160.502 271.855 160.502L276.782 154.016L281.075 155.827Z" fill="#9D46B1"/>
<path d="M271.612 162.929C271.629 162.878 271.656 162.833 271.686 162.791L271.661 162.784C271.147 162.614 270.831 162.177 270.954 161.809C270.973 161.748 271.005 161.695 271.044 161.646C270.772 161.436 270.635 161.139 270.722 160.876C270.758 160.771 270.825 160.685 270.912 160.617C270.627 160.423 270.481 160.1 270.579 159.807C270.702 159.44 271.156 159.258 271.594 159.404C272.031 159.549 272.287 159.965 272.165 160.333C272.134 160.427 272.082 160.508 272.014 160.574C272.441 160.772 272.69 161.159 272.58 161.493C272.56 161.552 272.528 161.607 272.488 161.656C272.761 161.866 272.897 162.163 272.81 162.426C272.778 162.522 272.718 162.605 272.638 162.671C272.9 162.83 273.037 163.115 272.951 163.373C272.847 163.685 272.464 163.837 272.094 163.714C271.724 163.591 271.509 163.239 271.612 162.929Z" fill="#9D46B1"/>
<path d="M260.4 128.835C261.003 129.776 260.868 130.938 260.097 131.431C259.328 131.924 258.214 131.561 257.612 130.621C257.009 129.68 257.146 128.518 257.915 128.025C258.685 127.532 259.798 127.894 260.4 128.835Z" fill="#A96149"/>
<path d="M259.148 130.873C259.183 130.869 259.22 130.855 259.253 130.834C259.722 130.522 259.921 130.056 259.784 129.586C259.644 129.105 259.195 128.749 258.716 128.739C258.581 128.735 258.469 128.842 258.466 128.978C258.464 129.113 258.571 129.225 258.706 129.227C258.968 129.233 259.235 129.45 259.315 129.722C259.391 129.984 259.273 130.234 258.982 130.427C258.869 130.501 258.839 130.653 258.914 130.765C258.966 130.846 259.058 130.883 259.148 130.873Z" fill="#9D46B1"/>
<path d="M24.6928 167.554C27.0766 171.913 25.475 177.379 21.1154 179.764C16.7559 182.148 11.2892 180.546 8.90541 176.187C6.52166 171.827 8.1232 166.36 12.4827 163.976C16.8422 161.593 22.3089 163.194 24.6928 167.554Z" fill="white"/>
<path d="M307.871 140.148C305.735 144.634 300.368 146.54 295.88 144.405C291.394 142.27 289.488 136.902 291.623 132.416C293.758 127.93 299.126 126.023 303.612 128.157C308.098 130.293 310.006 135.661 307.871 140.148Z" fill="white"/>
<path d="M279.354 48.741C281.357 53.288 279.294 58.598 274.747 60.6013C270.2 62.6046 264.89 60.5417 262.887 55.9947C260.885 51.4465 262.946 46.1377 267.495 44.1344C272.042 42.1311 277.352 44.194 279.354 48.741Z" fill="#F4DFF6"/>
<path d="M273.4 58.9741L272.71 57.4065C271.802 57.7875 270.747 57.9177 270.032 57.7692L269.947 56.5643C270.67 56.6909 271.607 56.6313 272.477 56.2479C273.58 55.7623 274.045 54.7971 273.654 53.9123C273.278 53.0579 272.441 52.7963 271.086 52.8377C269.229 52.9131 267.936 52.6308 267.341 51.2798C266.773 49.9909 267.259 48.6083 268.585 47.7467L267.894 46.1791L268.857 45.7543L269.52 47.261C270.466 46.8813 271.212 46.8497 271.778 46.9154L271.841 48.1105C271.433 48.068 270.646 48.0071 269.653 48.444C268.456 48.971 268.321 49.8838 268.595 50.5045C268.95 51.3127 269.702 51.4624 271.299 51.4271C273.186 51.3747 274.349 51.8263 274.958 53.2089C275.498 54.4357 275.15 55.9606 273.666 56.9282L274.378 58.5433L273.4 58.9741Z" fill="white"/>
<path d="M0.0688477 104.674L6.00805 93.595C6.00805 93.595 13.2535 94.2145 16.5792 102.611C18.6406 107.815 25.6374 110.515 25.6374 110.515L19.6666 121.653C19.6666 121.653 10.533 119.208 8.27691 113.219C5.89097 106.885 0.0688477 104.674 0.0688477 104.674Z" fill="#F4DFF6"/>
<path d="M16.347 111.431C14.378 113.086 11.2165 112.565 9.28545 110.269C7.35457 107.971 7.38548 104.768 9.35446 103.112C11.3234 101.457 14.485 101.978 16.4159 104.275C18.3469 106.573 18.316 109.776 16.347 111.431Z" fill="#B697F9"/>
<path d="M235.627 32.7561L227.267 23.3676C227.267 23.3676 230.341 16.7772 239.369 16.5435C244.964 16.3987 249.907 10.7576 249.907 10.7576L258.311 20.1959C258.311 20.1959 252.873 27.9304 246.473 27.9888C239.705 28.0497 235.627 32.7561 235.627 32.7561Z" fill="#F4DFF6"/>
<path d="M247.571 19.7966C248.447 22.215 246.871 25.0033 244.05 26.0268C241.229 27.0492 238.23 25.9185 237.354 23.5002C236.478 21.0819 238.054 18.2923 240.875 17.2688C243.696 16.2464 246.694 17.3783 247.571 19.7966Z" fill="#B697F9"/>
<path d="M290.537 173.515L291.902 163.349C291.902 163.349 297.615 161.747 302.561 167.209C305.625 170.595 311.745 170.655 311.745 170.655L310.373 180.875C310.373 180.875 302.695 181.622 299.255 177.692C295.619 173.537 290.537 173.515 290.537 173.515Z" fill="#F4DFF6"/>
<path d="M304.909 174.015C303.879 175.843 301.315 176.352 299.181 175.15C297.048 173.947 296.154 171.491 297.184 169.662C298.215 167.834 300.779 167.326 302.913 168.529C305.045 169.73 305.939 172.187 304.909 174.015Z" fill="#B697F9"/>
<path d="M159.129 79.8956L157.72 69.3971C157.72 69.3971 151.819 67.7431 146.713 73.3843C143.547 76.8809 137.227 76.9418 137.227 76.9418L138.645 87.4962C138.645 87.4962 146.574 88.269 150.125 84.2113C153.881 79.9187 159.129 79.8956 159.129 79.8956Z" fill="#F4DFF6"/>
<path d="M144.287 80.4129C145.351 82.3018 147.999 82.8251 150.203 81.5837C152.406 80.3423 153.329 77.8059 152.265 75.917C151.201 74.0293 148.552 73.5048 146.349 74.7462C144.146 75.9876 143.223 78.5252 144.287 80.4129Z" fill="#B697F9"/>
<path d="M118.877 186.318H65.7445C63.3839 186.318 61.47 184.405 61.47 182.044V170.807C61.47 168.446 63.3839 166.533 65.7445 166.533H118.877C121.238 166.533 123.151 168.446 123.151 170.807V182.044C123.151 184.405 121.238 186.318 118.877 186.318Z" fill="#B697F9"/>
<path d="M80.6305 173.643V179.21C80.6305 180.71 79.4146 181.926 77.914 181.926H67.3863C66.8338 181.926 66.3189 181.761 65.8893 181.476C65.1554 180.99 64.671 180.157 64.671 179.21V173.643C64.671 172.142 65.8869 170.926 67.3863 170.926H77.914C78.5261 170.926 79.0921 171.13 79.5461 171.473C80.2045 171.967 80.6305 172.756 80.6305 173.643Z" fill="#F4DFF6"/>
<path d="M102.089 178.69H84.6197C83.3692 178.69 82.3552 177.676 82.3552 176.426C82.3552 175.175 83.3692 174.161 84.6197 174.161H102.089C103.34 174.161 104.354 175.175 104.354 176.426C104.354 177.676 103.34 178.69 102.089 178.69Z" fill="#641873"/>
<path d="M117.687 178.69H108.933C107.682 178.69 106.668 177.676 106.668 176.426C106.668 175.175 107.682 174.161 108.933 174.161H117.687C118.937 174.161 119.95 175.175 119.95 176.426C119.95 177.676 118.937 178.69 117.687 178.69Z" fill="#4EAD60"/>
<path d="M79.5461 171.473L65.8893 181.476C65.1554 180.99 64.671 180.157 64.671 179.21V173.643C64.671 172.142 65.8869 170.926 67.3863 170.926H77.914C78.5261 170.926 79.0921 171.13 79.5461 171.473Z" fill="#9D46B1"/>
<path d="M77.0982 178.796C77.0982 179.804 76.2804 180.621 75.2716 180.621C74.2627 180.621 73.445 179.804 73.445 178.796C73.445 177.787 74.2627 176.969 75.2716 176.969C76.2804 176.969 77.0982 177.787 77.0982 178.796Z" fill="#B697F9"/>
<path d="M79.2673 178.796C79.2673 179.804 78.4495 180.621 77.4407 180.621C76.432 180.621 75.614 179.804 75.614 178.796C75.614 177.787 76.432 176.969 77.4407 176.969C78.4495 176.969 79.2673 177.787 79.2673 178.796Z" fill="#641873"/>
<path d="M118.877 210.294H65.7445C63.3839 210.294 61.47 208.379 61.47 206.019V194.781C61.47 192.42 63.3839 190.506 65.7445 190.506H118.877C121.238 190.506 123.151 192.42 123.151 194.781V206.019C123.151 208.379 121.238 210.294 118.877 210.294Z" fill="#B697F9"/>
<path d="M80.6305 197.617V203.184C80.6305 204.684 79.4146 205.9 77.914 205.9H67.3863C66.8338 205.9 66.3189 205.735 65.8893 205.45C65.1554 204.964 64.671 204.13 64.671 203.184V197.617C64.671 196.116 65.8869 194.9 67.3863 194.9H77.914C78.5261 194.9 79.0921 195.103 79.5461 195.447C80.2045 195.941 80.6305 196.729 80.6305 197.617Z" fill="#F4DFF6"/>
<path d="M102.089 202.665H84.6197C83.3692 202.665 82.3552 201.651 82.3552 200.4C82.3552 199.149 83.3692 198.135 84.6197 198.135H102.089C103.34 198.135 104.354 199.149 104.354 200.4C104.354 201.651 103.34 202.665 102.089 202.665Z" fill="#641873"/>
<path d="M117.687 202.665H108.933C107.682 202.665 106.668 201.651 106.668 200.4C106.668 199.149 107.682 198.135 108.933 198.135H117.687C118.937 198.135 119.95 199.149 119.95 200.4C119.95 201.651 118.937 202.665 117.687 202.665Z" fill="#4EAD60"/>
<path d="M79.5461 195.447L65.8893 205.45C65.1554 204.964 64.671 204.13 64.671 203.183V197.617C64.671 196.116 65.8869 194.9 67.3863 194.9H77.914C78.5261 194.9 79.0921 195.103 79.5461 195.447Z" fill="#B697F9"/>
<path d="M77.0982 202.77C77.0982 203.779 76.2804 204.597 75.2716 204.597C74.2627 204.597 73.445 203.779 73.445 202.77C73.445 201.761 74.2627 200.943 75.2716 200.943C76.2804 200.943 77.0982 201.761 77.0982 202.77Z" fill="#9D46B1"/>
<path d="M79.2673 202.77C79.2673 203.779 78.4495 204.597 77.4407 204.597C76.432 204.597 75.614 203.779 75.614 202.77C75.614 201.761 76.432 200.943 77.4407 200.943C78.4495 200.943 79.2673 201.761 79.2673 202.77Z" fill="#641873"/>
<path d="M15.7705 173.934L15.1574 173.219L16.5856 171.993L16.4046 171.301L15.5877 170.831L11.1044 169.944L13.8302 173.118L12.759 174.038L13.3721 174.752L14.4433 173.833L15.0564 174.547L13.9852 175.466L14.5984 176.18L15.6695 175.261L17.2023 177.046L17.9164 176.433L16.3836 174.648L17.8118 173.421L17.7766 172.899L17.1987 172.707L15.7705 173.934ZM13.5913 171.395L15.4164 171.757L14.5443 172.505L13.5913 171.395Z" fill="#F4DFF6"/>
<path d="M20.1561 168.928L19.543 168.214L18.4718 169.133L15.7128 165.92L14.9987 166.533L17.7577 169.746L16.3245 170.977L15.5878 170.831L16.5856 171.993L16.5906 171.989L17.7648 172.221L17.1987 172.707L17.8119 173.421L18.939 172.454L21.8107 173.022L20.3112 171.275L21.3824 170.356L20.7692 169.642L19.6981 170.561L19.085 169.847L20.1561 168.928ZM18.984 171.175L18.673 171.442L17.4988 171.209L18.3709 170.46L18.984 171.175Z" fill="#F4DFF6"/>
<path d="M110.353 26.1179V25.1767H112.235L112.549 24.5335L112.235 23.6449L109.412 20.0513V24.2355H108V25.1767H109.412V26.1179H108V27.0591H109.412V29.4121H110.353V27.0591H112.235L112.549 26.6397L112.235 26.1179H110.353ZM110.353 22.7726L111.502 24.2355H110.353V22.7726Z" fill="#F4DFF6"/>
<path d="M116.941 25.1768V24.2356H115.53V20.0002H114.588V24.2356H112.699L112.235 23.645V25.1768H112.242L112.982 26.118H112.235V27.0592H113.721L115.53 29.361V27.0592H116.941V26.118H115.53V25.1768H116.941ZM114.588 26.118H114.178L113.439 25.1768H114.588V26.118Z" fill="#F4DFF6"/>
<path d="M195.353 26.1179V25.1767H197.235L197.549 24.5335L197.235 23.6449L194.412 20.0513V24.2355H193V25.1767H194.412V26.1179H193V27.0591H194.412V29.4121H195.353V27.0591H197.235L197.549 26.6397L197.235 26.1179H195.353ZM195.353 22.7726L196.502 24.2355H195.353V22.7726Z" fill="#F4DFF6"/>
<path d="M201.941 25.1768V24.2356H200.53V20.0002H199.588V24.2356H197.699L197.235 23.645V25.1768H197.242L197.982 26.118H197.235V27.0592H198.721L200.53 29.361V27.0592H201.941V26.118H200.53V25.1768H201.941ZM199.588 26.118H199.178L198.439 25.1768H199.588V26.118Z" fill="#F4DFF6"/>
<path d="M296.979 125.041L297.632 124.363L298.989 125.667L299.661 125.421L300.05 124.563L300.506 120.016L297.606 123.032L296.588 122.053L295.936 122.732L296.953 123.71L296.301 124.389L295.283 123.41L294.631 124.089L295.649 125.067L294.018 126.763L294.696 127.416L296.327 125.719L297.684 127.024L298.201 126.939L298.336 126.346L296.979 125.041ZM299.298 122.63L299.113 124.481L298.284 123.684L299.298 122.63Z" fill="#F4DFF6"/>
<path d="M302.381 128.929L303.033 128.25L302.016 127.272L304.951 124.219L304.273 123.567L301.337 126.62L299.975 125.31L300.05 124.563L298.989 125.667L298.993 125.672L298.874 126.863L298.336 126.346L297.684 127.024L298.755 128.054L298.463 130.967L300.059 129.307L301.076 130.286L301.729 129.607L300.711 128.629L301.363 127.95L302.381 128.929ZM300.032 127.977L299.737 127.692L299.856 126.501L300.685 127.298L300.032 127.977Z" fill="#F4DFF6"/>
</svg>
