<svg width="264" height="195" viewBox="0 0 264 195" fill="none" xmlns="http://www.w3.org/2000/svg">
<path d="M121.182 41.7824C117.989 52.9281 106.365 59.3758 95.2195 56.183C84.072 52.9902 77.6242 41.3659 80.8171 30.2184C84.0099 19.0708 95.6341 12.623 106.782 15.8177C117.927 19.0105 124.377 30.6348 121.182 41.7824Z" fill="#F4DFF6"/>
<path d="M117.472 40.7197C114.866 49.8159 105.379 55.0783 96.2806 52.4736C87.1843 49.8671 81.9219 40.3799 84.5266 31.2818C87.1331 22.1837 96.6203 16.9213 105.718 19.5279C114.817 22.1344 120.079 31.6215 117.472 40.7197Z" fill="#B697F9"/>
<path d="M101.468 26.9587C105.067 26.8838 108.471 28.0966 108.837 31.6657L102.886 32.2722C102.718 30.926 101.304 30.7781 100.434 30.8657C99.8883 30.9224 98.1201 31.1032 98.2316 32.1955C98.48 34.6394 109.189 30.979 109.894 37.8943C110.318 42.0425 107.227 43.9183 103.269 44.6143L103.976 48.9962L100.343 49.367L100.113 44.9047C96.3758 44.8956 92.7574 43.511 92.3775 39.7794L98.3265 39.1729L98.3394 39.3008C98.5385 40.9374 100.405 41.0725 101.337 40.9776C102.239 40.8844 104.002 40.6415 103.879 39.4506C103.62 36.9098 92.8889 40.3456 92.2058 33.6567C91.8131 29.7972 94.6533 28.0108 98.3192 27.3131L97.6416 22.8964L101.275 22.5256L101.468 26.9587Z" fill="#F4DFF6"/>
<path d="M170.949 24.4754C170.949 37.9912 159.992 48.9492 146.475 48.9492C132.957 48.9492 122 37.9912 122 24.4754C122 10.9579 132.957 -9.53674e-05 146.475 -9.53674e-05C159.992 -9.53674e-05 170.949 10.9579 170.949 24.4754Z" fill="#F4DFF6"/>
<path d="M166.45 24.4757C166.45 35.5069 157.507 44.4506 146.475 44.4506C135.442 44.4506 126.5 35.5069 126.5 24.4757C126.5 13.4428 135.442 4.49907 146.475 4.49907C157.507 4.49907 166.45 13.4428 166.45 24.4757Z" fill="#B697F9"/>
<path d="M141.313 27.86V25.7233H145.587L146.299 24.2631L145.587 22.2457L139.176 14.0872V23.5865H135.971V25.7233H139.176V27.86H135.971V29.9968H139.176V35.3387H141.313V29.9968H145.587L146.299 29.0445L145.587 27.86H141.313ZM141.313 20.2653L143.923 23.5865H141.313V20.2653Z" fill="#F4DFF6"/>
<path d="M156.27 25.7231V23.5863H153.065V13.9709H150.929V23.5863H146.64L145.587 22.2456V25.7231H145.602L147.28 27.8598H145.587V29.9966H148.959L153.065 35.2224V29.9966H156.27V27.8598H153.065V25.7231H156.27ZM150.929 27.8598H149.998L148.319 25.7231H150.929V27.8598Z" fill="#F4DFF6"/>
<path d="M216.772 39.3872C216.772 52.8542 205.855 63.7726 192.386 63.7726C178.918 63.7726 168 52.8542 168 39.3872C168 25.9184 178.918 15 192.386 15C205.855 15 216.772 25.9184 216.772 39.3872Z" fill="#F4DFF6"/>
<path d="M212.29 39.3867C212.29 50.378 203.379 59.2895 192.386 59.2895C181.394 59.2895 172.483 50.378 172.483 39.3867C172.483 28.3936 181.394 19.4821 192.386 19.4821C203.379 19.4821 212.29 28.3936 212.29 39.3867Z" fill="#B697F9"/>
<path d="M187.243 42.7596V40.6305H191.501L192.211 39.1756L191.501 37.1655L185.114 29.0365V38.5015H181.921V40.6305H185.114V42.7596H181.921V44.8886H185.114V50.2112H187.243V44.8886H191.501L192.211 43.9398L191.501 42.7596H187.243ZM187.243 35.1922L189.843 38.5015H187.243V35.1922Z" fill="#F4DFF6"/>
<path d="M202.147 40.6304V38.5013H198.953V28.9206H196.824V38.5013H192.551L191.501 37.1654V40.6304H191.516L193.189 42.7594H191.501V44.8885H194.862L198.953 50.0954V44.8885H202.147V42.7594H198.953V40.6304H202.147ZM196.824 42.7594H195.897L194.224 40.6304H196.824V42.7594Z" fill="#F4DFF6"/>
<path d="M146 80.7716L187.453 44.6924L208.179 61.3264L236.678 36.2586L227.965 26.1835L264 14L250.574 49.8457L240.917 41.8811L208.886 82.8801L186.512 60.39L160.839 96L146 80.7716Z" fill="#B697F9"/>
<path d="M21.1323 195H184.275C184.275 195 207.207 177.2 212.01 159.292H227.736V123.04H212.666C212.666 123.04 201.526 80.0162 157.193 72.3702C112.86 64.7272 42.6733 64.3539 12.2879 111.793C-19.8152 161.914 21.1323 195 21.1323 195Z" fill="#9D46B1"/>
<path d="M184.316 194.968C185.383 194.131 207.324 176.763 212.01 159.293H227.736V130.187V159.293H212.01C207.324 176.763 185.383 194.131 184.316 194.968Z" fill="#EB8FA6"/>
<path d="M184.275 195H21.1329C21.1329 195 -0.0203977 177.909 1.47638e-05 149.681C0.00876298 138.638 3.26022 125.889 12.2884 111.793C15.6477 106.55 19.561 101.98 23.8039 97.8509C23.0515 103.461 23.2878 109.267 24.6408 114.916C31.2078 142.309 53.0288 150.051 77.9175 158.418C92.8128 163.427 113.254 165.836 133.635 165.836C147.915 165.836 162.166 164.652 174.448 162.351C193.289 158.817 214.632 146.427 227.737 130.187V159.292H212.01C207.324 176.763 185.383 194.131 184.316 194.968C184.287 194.988 184.275 195 184.275 195Z" fill="#641873"/>
<path d="M167.021 76.7393C167.021 76.7393 185.366 57.9598 187.112 58.8317C188.862 59.7065 194.758 74.9925 190.171 90.5002L167.021 76.7393Z" fill="#9D46B1"/>
<path d="M163.162 74.5536C163.162 74.5536 144.812 55.7596 143.071 56.6461C139.805 58.3112 135.428 72.8069 140.012 88.3146L163.162 74.5536Z" fill="#9D46B1"/>
<path d="M116.237 87.8436C112.921 85.8373 109.107 84.7379 105.325 84.0322C101.388 83.3003 89.412 82.0027 80.5354 83.3791C70.1105 84.9946 54.5766 90.086 49.2489 95.3087C49.2489 95.3087 46.7731 98.4989 50.5873 102.704C54.4307 106.941 59.1343 103.474 61.7063 102.377C63.0739 101.794 67.6697 100.085 72.4434 98.5309C78.433 96.5772 84.7578 95.7957 91.0624 96.2535C96.9499 96.6792 104.179 97.2362 105.762 97.5191C108.533 98.0119 113.945 100.339 116.689 95.3495C119.413 90.3951 116.237 87.8436 116.237 87.8436Z" fill="#14162E"/>
<path d="M75.5926 91.223C87.2598 88.3011 98.5537 89.7066 110.402 89.6804L110.425 89.6833C111.909 86.6564 112.971 83.3584 113.493 79.8474C116.222 61.5374 103.593 44.4842 85.2827 41.7548C66.9727 39.0253 49.9195 51.6549 47.1901 69.9619C45.5571 80.9118 49.4471 91.3864 56.7285 98.6415C62.7356 95.6147 68.7923 92.9289 75.5926 91.223Z" fill="#F4DFF6"/>
<path d="M62.7765 95.7688C66.8619 93.9579 71.0553 92.3599 75.5927 91.2226C84.9358 88.8839 94.0486 89.3155 103.392 89.5663C105.389 86.4286 106.815 82.8564 107.398 78.9372C109.626 63.9953 99.3179 50.0739 84.376 47.846C69.4311 45.6211 55.5127 55.9294 53.2848 70.8713C51.8326 80.611 55.7634 89.855 62.7765 95.7688Z" fill="#B697F9"/>
<path d="M85.618 79.7657C86.0583 81.6232 83.3201 82.3785 81.9116 82.7109C80.4565 83.058 77.4764 83.2329 76.8173 80.6843L76.7706 80.4831L67.4801 82.6847C68.8623 88.511 74.8781 89.9486 80.7948 89.1817L80.9786 90.1849C82.7224 89.9253 84.4603 89.7474 86.1953 89.622L85.7287 88.0649C91.8496 86.1403 96.3491 82.5243 94.8153 76.0477C92.255 65.2495 76.0678 73.2746 75.1638 69.4574C74.7614 67.7515 77.523 67.0983 78.3745 66.8971C79.7334 66.5734 81.9992 66.5151 82.5474 68.6089L91.841 66.4072C90.52 60.8346 84.8744 59.6273 79.1968 60.4963L77.9663 53.5182L72.2916 54.8654L74.2861 61.7123C68.629 63.5815 64.5057 67.0021 65.9316 73.0267C68.4103 83.475 84.6761 75.7969 85.618 79.7657Z" fill="#F4DFF6"/>
<path d="M183.531 114.779C181.411 119.395 176.746 122.6 171.333 122.6C166.067 122.6 161.509 119.564 159.313 115.146C157.812 112.119 151.79 115.047 160.742 125.492C167.642 133.541 181.21 132.243 185.453 122.53C186.275 120.646 186.73 118.564 186.73 116.377C186.73 113.65 184.313 113.076 183.531 114.779Z" fill="#14162E"/>
</svg>
