<svg width="185" height="217" viewBox="0 0 185 217" fill="none" xmlns="http://www.w3.org/2000/svg">
<path d="M175.031 144.911C169.199 160.719 160.378 174.463 148.81 185.759C135.643 198.616 118.402 208.833 97.5649 216.121C96.8811 216.359 96.1676 216.555 95.4507 216.699C94.5037 216.886 93.5402 216.987 92.5849 217H92.3978C91.3797 217 90.3565 216.897 89.3416 216.699C88.6248 216.555 87.9212 216.359 87.2407 216.126C66.3787 208.85 49.116 198.638 35.9359 185.781C24.3634 174.485 15.5442 160.748 9.71985 144.941C-0.870895 116.2 -0.268264 84.5387 0.216821 59.0958L0.225099 58.7051C0.322778 56.6041 0.38569 54.3973 0.420457 51.9602C0.597604 39.9954 10.1106 30.0967 22.0771 29.4295C47.0267 28.0371 66.3274 19.9 82.8186 3.82593L82.9627 3.69348C85.701 1.18197 89.1512 -0.0497834 92.5849 0.00153973C95.8961 0.0445849 99.194 1.27468 101.835 3.69348L101.975 3.82593C118.47 19.9 137.771 28.0371 162.72 29.4295C174.687 30.0967 184.2 39.9954 184.377 51.9602C184.412 54.4138 184.475 56.6174 184.572 58.7051L184.577 58.8706C185.061 84.3616 185.66 116.086 175.031 144.911Z" fill="#9D46B1"/>
<path d="M175.031 144.911C169.199 160.719 160.378 174.463 148.81 185.759C135.643 198.616 118.402 208.833 97.5649 216.121C96.8812 216.359 96.1676 216.555 95.4508 216.699C94.5038 216.886 93.5402 216.987 92.585 217V0.00149536C95.8961 0.0445405 99.194 1.27464 101.835 3.69344L101.975 3.82588C118.47 19.8999 137.771 28.0371 162.72 29.4294C174.687 30.0966 184.2 39.9953 184.377 51.9602C184.412 54.4138 184.475 56.6174 184.572 58.705L184.577 58.8706C185.061 84.3616 185.66 116.086 175.031 144.911Z" fill="#641873"/>
<path d="M146.475 108.5C146.475 138.256 122.315 162.477 92.5844 162.583H92.394C62.5753 162.583 38.3112 138.32 38.3112 108.5C38.3112 78.6812 62.5753 54.4187 92.394 54.4187H92.5844C122.315 54.5246 146.475 78.7458 146.475 108.5Z" fill="white"/>
<path d="M146.476 108.5C146.476 138.256 122.316 162.477 92.585 162.583V54.4187C122.316 54.5246 146.476 78.7458 146.476 108.5Z" fill="#F4DFF6"/>
<path d="M116.942 100.712L92.585 125.072L87.322 130.335C86.0786 131.579 84.4479 132.199 82.8188 132.199C81.188 132.199 79.5589 131.579 78.314 130.335L66.9981 119.014C64.5114 116.528 64.5114 112.5 66.9981 110.011C69.4814 107.525 73.5144 107.525 76.0011 110.011L82.8188 116.829L107.939 91.7089C110.426 89.2205 114.459 89.2205 116.942 91.7089C119.429 94.1956 119.429 98.2285 116.942 100.712Z" fill="#F4DFF6"/>
<path d="M116.942 100.712L92.585 125.072V107.061L107.939 91.7089C110.425 89.2205 114.458 89.2205 116.942 91.7089C119.428 94.1956 119.428 98.2285 116.942 100.712Z" fill="#B697F9"/>
</svg>
