<svg width="277" height="217" viewBox="0 0 277 217" fill="none" xmlns="http://www.w3.org/2000/svg">
<path d="M250.942 120.456C250.942 164.385 215.33 200 171.4 200C127.468 200 91.8564 164.385 91.8564 120.456C91.8564 76.5244 127.468 40.9126 171.4 40.9126C215.33 40.9126 250.942 76.5244 250.942 120.456Z" fill="#B697F9"/>
<path d="M231.69 120.457C231.69 153.753 204.697 180.746 171.4 180.746C138.102 180.746 111.108 153.753 111.108 120.457C111.108 87.1595 138.102 60.1644 171.4 60.1644C204.697 60.1644 231.69 87.1595 231.69 120.457Z" fill="#E6E7E5"/>
<path d="M214.465 120.456C214.465 144.238 195.184 163.52 171.401 163.52C147.616 163.52 128.336 144.238 128.336 120.456C128.336 96.6704 147.616 77.3913 171.401 77.3913C195.184 77.3913 214.465 96.6704 214.465 120.456Z" fill="#B697F9"/>
<path d="M201.037 120.456C201.037 136.824 187.768 150.095 171.4 150.095C155.03 150.095 141.76 136.824 141.76 120.456C141.76 104.087 155.03 90.8164 171.4 90.8164C187.768 90.8164 201.037 104.087 201.037 120.456Z" fill="#E6E7E5"/>
<path d="M185.079 120.455C185.079 128.009 178.954 134.136 171.4 134.136C163.844 134.136 157.72 128.009 157.72 120.455C157.72 112.899 163.844 106.775 171.4 106.775C178.954 106.775 185.079 112.899 185.079 120.455Z" fill="#B697F9"/>
<path d="M273.33 67.8821C272.105 66.5201 268.406 61.7093 260.185 69.148C252.356 76.2297 242.854 86.3401 242.854 86.3401C242.854 86.3401 256.283 82.8528 266.253 79.3792C276.721 75.7326 274.332 69.4637 273.33 67.8821Z" fill="#B697F9"/>
<path d="M261.709 71.0788L247.908 76.3538C243.747 77.9409 239.738 79.9014 235.929 82.2108L171.4 121.299L236.338 94.6031C243.664 91.5908 250.459 87.428 256.47 82.2712L263.848 75.9419C262.791 74.503 262.071 72.8444 261.709 71.0788Z" fill="#14162E"/>
<path d="M240.945 86.3401C240.945 86.3401 242.802 65.905 253.949 57.2938C265.095 48.6799 262.73 73.8435 262.73 73.8435L240.945 86.3401Z" fill="#B697F9"/>
<path d="M240.945 86.2138C240.945 86.2138 259.567 94.8304 272.602 89.4896C285.637 84.1461 262.664 73.6045 262.664 73.6045L240.945 86.2138Z" fill="#B697F9"/>
<path d="M171.57 200C171.58 200 171.591 200 171.602 200C171.591 200 171.58 200 171.57 200ZM91.8564 120.316C91.8564 120.3 91.8564 120.286 91.8564 120.27C91.8564 120.286 91.8564 120.3 91.8564 120.316ZM91.8564 120.176C91.8564 120.16 91.8564 120.14 91.8564 120.124C91.8564 120.138 91.8564 120.16 91.8564 120.176ZM91.8575 120.033C91.8575 120.014 91.8575 119.998 91.8575 119.981C91.8575 119.998 91.8575 120.014 91.8575 120.033ZM91.8575 119.888C91.8575 119.874 91.8586 119.858 91.8586 119.841C91.8586 119.858 91.8575 119.874 91.8575 119.888ZM91.8586 119.742C91.8597 119.726 91.8597 119.715 91.8597 119.701C91.8597 119.712 91.8597 119.729 91.8586 119.742ZM91.8628 119.416C91.8628 119.41 91.8628 119.405 91.8628 119.402C91.8628 119.405 91.8628 119.413 91.8628 119.416ZM91.8639 119.27C91.865 119.262 91.865 119.256 91.865 119.251C91.865 119.256 91.865 119.265 91.8639 119.27ZM91.8661 119.124C91.8672 119.119 91.8672 119.111 91.8672 119.103C91.8672 119.111 91.8672 119.116 91.8661 119.124ZM91.8694 118.976C91.8694 118.971 91.8694 118.965 91.8694 118.96C91.8694 118.965 91.8694 118.971 91.8694 118.976Z" fill="#EC90A7"/>
<path d="M171.4 200C127.469 200 91.8564 164.385 91.8564 120.456C91.8564 120.41 91.8564 120.363 91.8564 120.316C91.8564 120.3 91.8564 120.286 91.8564 120.27C91.8564 120.239 91.8564 120.206 91.8564 120.176C91.8564 120.16 91.8564 120.138 91.8564 120.124C91.8564 120.094 91.8564 120.064 91.8575 120.033C91.8575 120.014 91.8575 119.998 91.8575 119.981C91.8575 119.948 91.8575 119.921 91.8575 119.888C91.8575 119.874 91.8586 119.858 91.8586 119.841C91.8586 119.808 91.8586 119.773 91.8586 119.742C91.8597 119.729 91.8597 119.712 91.8597 119.701C91.8608 119.605 91.8617 119.509 91.8628 119.416C91.8628 119.413 91.8628 119.405 91.8628 119.402C91.8628 119.355 91.8639 119.314 91.8639 119.27C91.865 119.265 91.865 119.256 91.865 119.251C91.865 119.21 91.8661 119.168 91.8661 119.125C91.8672 119.116 91.8672 119.111 91.8672 119.103C91.8683 119.059 91.8683 119.017 91.8694 118.976C91.8694 118.971 91.8694 118.965 91.8694 118.96C92.3285 94.0873 104.218 72.0238 122.49 57.7506C130.373 59.961 138.759 60.8672 145.819 65.8455C125.31 75.4672 111.108 96.3032 111.108 120.456C111.108 153.753 138.102 180.746 171.4 180.746C175.2 180.746 178.92 180.394 182.526 179.721C182.406 181.803 182.363 183.865 182.426 185.902C182.552 190.071 182.717 194.566 183.09 199.138C179.337 199.69 175.505 199.989 171.602 200C171.591 200 171.58 200 171.57 200C171.513 200 171.456 200 171.4 200Z" fill="#8D5DF5"/>
<path d="M171.401 163.52C147.616 163.52 128.336 144.238 128.336 120.456C128.336 100.938 141.318 84.4539 159.119 79.1652C162.086 82.8804 164.903 86.8977 167.546 91.066C152.997 92.9552 141.761 105.391 141.761 120.456C141.761 136.824 155.031 150.095 171.401 150.095C177.032 150.095 182.296 148.524 186.78 145.795C186.426 150.941 185.637 156.166 184.825 161.386C180.6 162.77 176.088 163.52 171.401 163.52Z" fill="#8D5DF5"/>
<path d="M171.4 134.136C163.844 134.136 157.72 128.009 157.72 120.455C157.72 112.899 163.844 106.775 171.4 106.775C173.415 106.775 175.33 107.212 177.054 107.994C178.348 110.587 179.568 113.157 180.705 115.661L171.4 121.298L181.391 117.19C182.279 119.187 183.111 121.136 183.887 123.026C184.091 123.52 184.283 124.02 184.465 124.522C182.732 130.091 177.539 134.136 171.4 134.136Z" fill="#8D5DF5"/>
<path d="M171.4 121.299L180.705 115.662C180.938 116.175 181.166 116.686 181.391 117.191L171.4 121.299Z" fill="#0D0F1F"/>
<path d="M92.1111 39.6137C92.1111 39.6137 70.4489 45.0291 54.2015 57.0657C37.9549 69.0999 21.1063 106.408 17.7965 132.583C14.4868 158.759 7.86744 179.217 17.7965 192.607C27.7247 205.996 59.918 208.704 87.5985 211.411C115.278 214.119 153.472 207.5 161.152 197.87C168.832 188.243 168.231 115.368 153.79 87.8702C139.348 60.3751 113.172 39.012 92.1111 39.6137Z" fill="#9D46B1"/>
<path d="M129.004 196.41C123.44 194.561 117.716 192.541 113.124 188.757C103.27 180.636 97.2611 178.227 84.9958 178.347C73.7768 178.459 62.9353 178.427 53.3024 172.061C44.7165 166.386 39.9192 153.713 41.9917 143.758C43.5004 136.513 45.6729 130.738 50.1446 124.8C56.4545 116.422 57.665 110.4 55.4186 99.924C52.7339 87.4079 52.3325 76.7093 56.0071 64.3033C57.9057 57.8949 62.3771 53.2402 67.4114 49.0478C62.9571 51.2956 58.3998 53.9544 54.2015 57.0657C37.9549 69.0999 21.1063 106.408 17.7965 132.583C14.4868 158.759 7.86744 179.217 17.7965 192.607C27.7247 205.996 59.918 208.704 87.5985 211.411C115.278 214.119 153.472 207.5 161.152 197.87C162.643 196.004 163.817 191.734 164.643 185.895C155.032 195.395 142.572 200.918 129.004 196.41Z" fill="#641873"/>
<path d="M89.1023 45.0297C89.1023 45.0297 65.861 39.3893 62.7013 21.7881C59.5425 4.18685 68.7942 -1.90606 75.9017 2.1567C83.0104 6.21945 84.1377 4.02788 89.1023 0.948399C94.0669 -2.13108 101.287 2.83422 104.898 8.02458C108.509 13.2125 109.185 7.12202 117.76 6.44449C126.335 5.76696 129.269 13.665 124.755 24.0457C120.243 34.4239 115.954 45.4822 89.1023 45.0297Z" fill="#9D46B1"/>
<path d="M114.293 35.1336C108.273 36.6844 111.838 28.9037 110.858 26.2009C109.283 26.2768 108.697 28.889 108.172 30.0264C107.04 32.4748 104.484 34.1185 101.773 34.0867C98.0206 34.0403 97.4989 29.9457 95.8975 27.4288C95.2232 26.3722 94.9096 26.4089 94.4901 27.6783C94.0288 29.0774 94.472 30.7113 93.1698 31.8046C90.7659 33.8201 86.7682 31.5331 84.9031 29.9115C82.8671 28.143 82.0196 25.2348 79.8449 23.5177C79.4474 23.9286 79.284 24.479 79.1676 25.0293C78.6297 27.5633 78.7862 32.3819 74.6616 31.4964C71.1636 30.748 68.8162 25.0317 67.6906 22.121C66.395 18.7725 65.1739 14.7758 65.1835 11.1582C65.1874 9.58301 65.2828 8.06647 65.4968 6.5304C65.6201 5.6474 65.9202 3.71997 66.3568 2.97884L66.3292 2.96666C62.9801 5.90916 60.9642 12.1097 62.7013 21.7884C65.388 36.7602 82.6034 43.0781 87.6893 44.6313C88.577 44.9028 89.5065 45.0423 90.4342 45.0447C111.587 45.0985 118.164 37.7288 122.31 29.4223L122.273 29.4614C122.273 29.4614 116.448 34.5759 114.293 35.1336Z" fill="#641873"/>
<path d="M98.89 97.3168C110.283 98.442 120.579 103.561 120.379 114.972L101.356 114.632C101.331 110.317 96.9254 109.312 94.1471 109.265C92.4004 109.234 86.747 109.133 86.6849 112.626C86.5464 120.439 121.749 112.942 121.357 135.044C121.122 148.306 110.652 153.058 97.8877 153.753L98.46 167.856L86.8446 167.653L87.8135 153.474C76.0143 152.028 65.1097 146.285 65.3228 134.359L84.3421 134.696L84.3336 135.105C84.3431 140.351 90.1839 141.484 93.1657 141.535C96.0486 141.586 101.706 141.486 101.77 137.678C101.915 129.557 66.7265 136.34 67.1029 114.955C67.3255 102.617 76.9717 98.0531 88.8119 97.2386L88.3455 83.0373L99.9621 83.2427L98.89 97.3168Z" fill="#F4DFF6"/>
<path d="M72.1755 36.6656L70.0783 47.7433C70.0783 47.7433 76.0164 53.4547 92.1875 53.4547C108.359 53.4547 117.083 47.7385 117.083 47.7385L116.031 37.7344C116.031 37.7344 93.9092 43.3406 72.1755 36.6656Z" fill="#F4DFF6"/>
<path d="M148.591 153.836C135.811 153.717 125.722 156.464 118.391 167.546C113.534 174.885 107.066 186.325 110.76 195.517C111.776 198.046 113.104 200.345 114.454 202.618C133.077 200.939 150.493 196.248 155.234 190.305C158.168 186.626 159.779 172.874 159.709 156.265C156.193 155.147 152.669 153.872 148.591 153.836Z" fill="#641873"/>
<path d="M186.761 185.474C186.761 202.885 172.646 217 155.234 217C137.821 217 123.707 202.885 123.707 185.474C123.707 168.061 137.821 153.945 155.234 153.945C172.646 153.945 186.761 168.061 186.761 185.474Z" fill="#F4DFF6"/>
<path d="M180.966 185.474C180.966 199.684 169.445 211.205 155.234 211.205C141.022 211.205 129.503 199.684 129.503 185.474C129.503 171.262 141.022 159.741 155.234 159.741C169.445 159.741 180.966 171.262 180.966 185.474Z" fill="#B697F9"/>
<path d="M152.17 172.227C157.334 170.629 162.752 170.972 164.755 175.973L156.415 179.311C155.614 177.437 153.513 177.807 152.295 178.296C151.529 178.601 149.051 179.594 149.663 181.124C151.034 184.549 164.979 174.84 168.858 184.529C171.185 190.342 167.499 194.329 162.072 196.97L164.904 203.001L159.812 205.042L157.636 198.694C152.238 200.225 146.44 199.724 144.348 194.495L152.686 191.157L152.758 191.339C153.722 193.619 156.472 193.043 157.778 192.517C159.042 192.012 161.486 190.933 160.816 189.263C159.392 185.703 145.322 195.101 141.569 185.725C139.406 180.316 142.767 176.563 147.77 174.041L144.966 167.945L150.058 165.907L152.17 172.227Z" fill="#F4DFF6"/>
<path d="M63.0546 148.515C63.0546 165.926 48.9398 180.041 31.5272 180.041C14.1148 180.041 0 165.926 0 148.515C0 131.102 14.1148 116.987 31.5272 116.987C48.9398 116.987 63.0546 131.102 63.0546 148.515Z" fill="#F4DFF6"/>
<path d="M57.2592 148.515C57.2592 162.725 45.7386 174.246 31.5271 174.246C17.3158 174.246 5.79609 162.725 5.79609 148.515C5.79609 134.303 17.3158 122.782 31.5271 122.782C45.7386 122.782 57.2592 134.303 57.2592 148.515Z" fill="#B697F9"/>
<path d="M24.8783 152.875V150.123H30.3833L31.3008 148.242L30.3833 145.643L22.1258 135.134V147.37H17.9971V150.123H22.1258V152.875H17.9971V155.628H22.1258V162.509H24.8783V155.628H30.3833L31.3008 154.401L30.3833 152.875H24.8783ZM24.8783 143.092L28.2399 147.37H24.8783V143.092Z" fill="#F4DFF6"/>
<path d="M44.1456 150.123V147.37H40.0169V134.984H37.2644V147.37H31.7401L30.3831 145.643V150.123H30.4024L32.565 152.875H30.3831V155.628H34.7277L40.0169 162.36V155.628H44.1456V152.875H40.0169V150.123H44.1456ZM37.2644 152.875H36.0656L33.9029 150.123H37.2644V152.875Z" fill="#F4DFF6"/>
</svg>
