<svg width="216" height="190" viewBox="0 0 216 190" fill="none" xmlns="http://www.w3.org/2000/svg">
<path d="M206.075 26.6466C206.075 38.3273 196.605 47.7975 184.923 47.7975C173.241 47.7975 163.772 38.3273 163.772 26.6466C163.772 14.9644 173.241 5.4942 184.923 5.4942C196.605 5.4942 206.075 14.9644 206.075 26.6466Z" fill="#F4DFF6"/>
<path d="M202.187 26.6465C202.187 36.1799 194.458 43.9093 184.923 43.9093C175.389 43.9093 167.66 36.1799 167.66 26.6465C167.66 17.1116 175.389 9.38216 184.923 9.38216C194.458 9.38216 202.187 17.1116 202.187 26.6465Z" fill="#B697F9"/>
<path d="M180.462 29.5721V27.7255H184.156L184.771 26.4636L184.156 24.7201L178.616 17.6693V25.8788H175.846V27.7255H178.616V29.5721H175.846V31.4188H178.616V36.0354H180.462V31.4188H184.156L184.771 30.5958L184.156 29.5721H180.462ZM180.462 23.0086L182.718 25.8788H180.462V23.0086Z" fill="#F4DFF6"/>
<path d="M193.389 27.7253V25.8787H190.619V17.5688H188.772V25.8787H185.066L184.156 24.72V27.7253H184.169L185.62 29.572H184.156V31.4186H187.07L190.619 35.9349V31.4186H193.389V29.572H190.619V27.7253H193.389ZM188.772 29.572H187.968L186.517 27.7253H188.772V29.572Z" fill="#F4DFF6"/>
<path d="M32.4623 43.1037C42.5429 40.5689 52.3047 41.7743 62.544 41.7419L62.5642 41.7444C63.8444 39.1272 64.759 36.2761 65.2072 33.2414C67.551 17.4152 56.6221 2.68782 40.7959 0.344065C24.9697 -1.99969 10.2423 8.9291 7.89856 24.7528C6.49631 34.2173 9.86681 43.2665 16.1656 49.5306C21.3546 46.9097 26.5867 44.5836 32.4623 43.1037Z" fill="#F4DFF6"/>
<path d="M21.3898 47.0431C24.9191 45.4748 28.5418 44.0902 32.4622 43.1036C40.5348 41.0748 48.4106 41.4403 56.4854 41.6493C58.2091 38.936 59.4384 35.8476 59.9392 32.4601C61.8523 19.545 52.9322 7.52234 40.0171 5.60926C27.0996 3.69872 15.0794 12.6189 13.1663 25.5339C11.9193 33.9524 15.324 41.9381 21.3898 47.0431Z" fill="#B697F9"/>
<path d="M41.1171 33.1933C41.4992 34.7983 39.1334 35.4533 37.9164 35.7417C36.6592 36.0428 34.0838 36.1965 33.5121 33.9945L33.4716 33.8206L25.4443 35.7309C26.6436 40.765 31.8438 42.0025 36.9565 41.3348L37.1162 42.2017C38.623 41.9759 40.1248 41.8207 41.6242 41.7109L41.2197 40.3656C46.5079 38.6973 50.3935 35.5685 49.0626 29.9726C46.841 20.6426 32.8582 27.5914 32.0739 24.2933C31.7247 22.8193 34.1108 22.2525 34.8465 22.0779C36.0206 21.7971 37.9787 21.7448 38.4542 23.5538L46.4841 21.6435C45.3379 16.8286 40.4578 15.7899 35.5518 16.5455L34.4827 10.5159L29.5796 11.6848L31.309 17.6005C26.4214 19.2206 22.8608 22.1801 24.0981 27.3855C26.2488 36.4132 40.2998 29.7642 41.1171 33.1933Z" fill="#F4DFF6"/>
<path d="M141.864 10.45C141.514 10.183 138.273 7.77181 132.499 5.45159C125.061 2.46215 116.526 0.881927 107.817 0.881927C99.1087 0.881927 90.5742 2.46215 83.1351 5.45159C77.3618 7.77181 74.1205 10.183 73.77 10.4504C72.0121 11.791 70.9802 13.8754 70.9802 16.0861V27.2053L78.0672 30.9958L85.1546 27.2053V20.0994C89.0441 18.1144 96.8222 15.0559 107.817 15.0559C118.812 15.0559 126.589 18.1144 130.479 20.0994V27.2049L137.566 30.9954L144.653 27.2049V16.0861C144.654 13.8749 143.622 11.7906 141.864 10.45Z" fill="#B697F9"/>
<path d="M70.9807 27.2048V35.0301L78.0681 38.8206L85.1555 35.0301V27.2048H70.9807Z" fill="#F4DFF6"/>
<path d="M144.654 27.2047H130.48V35.03L137.567 38.8205L144.654 35.03V27.2047Z" fill="#F4DFF6"/>
<path d="M5.57898 112.996V175.957C5.57898 183.431 11.6383 189.49 19.1128 189.49H196.525C203.999 189.49 210.058 183.431 210.058 175.957V112.996H5.57898Z" fill="#9D46B1"/>
<path d="M5.57898 105.17V112.996C16.8225 121.923 46.5384 139.253 107.819 139.253C169.099 139.253 198.815 121.923 210.058 112.995V105.17H5.57898V105.17Z" fill="#641873"/>
<path d="M4.99168 100.664C15.7672 109.437 45.4419 127.393 107.819 127.393C170.196 127.393 199.87 109.437 210.646 100.664C213.805 98.0921 215.638 90.4479 215.638 86.3748V48.5645C215.638 41.09 209.578 35.0307 202.104 35.0307H13.5338C6.05934 35.0307 0 41.09 0 48.5645V86.3748C0 90.4479 1.83292 98.0921 4.99168 100.664Z" fill="#CE7FD5"/>
<path d="M210.646 96.8725C199.871 105.645 170.196 123.601 107.819 123.601C45.4419 123.601 15.7677 105.645 4.99168 96.8725C1.83292 94.3009 0 90.4472 0 86.3741V94.1998C0 98.2729 1.83292 102.127 4.99168 104.698C15.7672 113.471 45.4419 131.427 107.819 131.427C170.196 131.427 199.87 113.471 210.646 104.698C213.805 102.127 215.638 98.2729 215.638 94.1998V86.3741C215.638 90.4472 213.805 94.3009 210.646 96.8725Z" fill="#9D46B1"/>
<path d="M107.818 144.452C114.819 144.452 120.495 139.253 120.495 127.984V120.298C120.495 117.806 118.475 115.787 115.984 115.787H99.6516C97.16 115.787 95.1405 117.806 95.1405 120.298V127.985C95.1401 139.253 100.816 144.452 107.818 144.452Z" fill="#F4DFF6"/>
<path d="M107.818 140.661C100.816 140.661 95.1405 134.985 95.1405 127.984V135.809C95.1405 142.811 100.816 148.487 107.818 148.487C114.819 148.487 120.495 142.811 120.495 135.809V127.984C120.495 134.985 114.819 140.661 107.818 140.661Z" fill="#B697F9"/>
</svg>
